%TF.GenerationSoftware,KiCad,Pcbnew,(6.0.7)*%
%TF.CreationDate,2023-02-10T17:06:25+01:00*%
%TF.ProjectId,STM32L0_ESP32_Breakout_Board,53544d33-324c-4305-9f45-535033325f42,rev?*%
%TF.SameCoordinates,Original*%
%TF.FileFunction,Soldermask,Bot*%
%TF.FilePolarity,Negative*%
%FSLAX46Y46*%
G04 Gerber Fmt 4.6, Leading zero omitted, Abs format (unit mm)*
G04 Created by KiCad (PCBNEW (6.0.7)) date 2023-02-10 17:06:25*
%MOMM*%
%LPD*%
G01*
G04 APERTURE LIST*
G04 Aperture macros list*
%AMRoundRect*
0 Rectangle with rounded corners*
0 $1 Rounding radius*
0 $2 $3 $4 $5 $6 $7 $8 $9 X,Y pos of 4 corners*
0 Add a 4 corners polygon primitive as box body*
4,1,4,$2,$3,$4,$5,$6,$7,$8,$9,$2,$3,0*
0 Add four circle primitives for the rounded corners*
1,1,$1+$1,$2,$3*
1,1,$1+$1,$4,$5*
1,1,$1+$1,$6,$7*
1,1,$1+$1,$8,$9*
0 Add four rect primitives between the rounded corners*
20,1,$1+$1,$2,$3,$4,$5,0*
20,1,$1+$1,$4,$5,$6,$7,0*
20,1,$1+$1,$6,$7,$8,$9,0*
20,1,$1+$1,$8,$9,$2,$3,0*%
G04 Aperture macros list end*
%ADD10C,0.900000*%
%ADD11C,8.600000*%
%ADD12RoundRect,0.250000X0.600000X0.725000X-0.600000X0.725000X-0.600000X-0.725000X0.600000X-0.725000X0*%
%ADD13O,1.700000X1.950000*%
%ADD14RoundRect,0.250000X-0.750000X0.600000X-0.750000X-0.600000X0.750000X-0.600000X0.750000X0.600000X0*%
%ADD15O,2.000000X1.700000*%
%ADD16RoundRect,0.250000X-0.600000X-0.725000X0.600000X-0.725000X0.600000X0.725000X-0.600000X0.725000X0*%
G04 APERTURE END LIST*
D10*
%TO.C,H4*%
X117280419Y-116719581D03*
X115000000Y-115775000D03*
X111775000Y-119000000D03*
X112719581Y-116719581D03*
X118225000Y-119000000D03*
X115000000Y-122225000D03*
X112719581Y-121280419D03*
X117280419Y-121280419D03*
D11*
X115000000Y-119000000D03*
%TD*%
D12*
%TO.C,J3*%
X131100000Y-79450000D03*
D13*
X128600000Y-79450000D03*
X126100000Y-79450000D03*
%TD*%
D12*
%TO.C,J4*%
X143900000Y-79450000D03*
D13*
X141400000Y-79450000D03*
X138900000Y-79450000D03*
%TD*%
D10*
%TO.C,H1*%
X118225000Y-79000000D03*
X117280419Y-76719581D03*
X115000000Y-82225000D03*
X112719581Y-81280419D03*
X115000000Y-75775000D03*
X117280419Y-81280419D03*
X112719581Y-76719581D03*
D11*
X115000000Y-79000000D03*
D10*
X111775000Y-79000000D03*
%TD*%
D11*
%TO.C,H3*%
X155000000Y-119000000D03*
D10*
X155000000Y-122225000D03*
X151775000Y-119000000D03*
X152719581Y-121280419D03*
X158225000Y-119000000D03*
X155000000Y-115775000D03*
X152719581Y-116719581D03*
X157280419Y-121280419D03*
X157280419Y-116719581D03*
%TD*%
%TO.C,H2*%
X152719581Y-81280419D03*
X157280419Y-76719581D03*
X158225000Y-79000000D03*
X157280419Y-81280419D03*
X152719581Y-76719581D03*
X151775000Y-79000000D03*
X155000000Y-82225000D03*
D11*
X155000000Y-79000000D03*
D10*
X155000000Y-75775000D03*
%TD*%
D14*
%TO.C,J1*%
X115450000Y-101750000D03*
D15*
X115450000Y-104250000D03*
%TD*%
D16*
%TO.C,J5*%
X139000000Y-118500000D03*
D13*
X141500000Y-118500000D03*
X144000000Y-118500000D03*
%TD*%
D16*
%TO.C,J2*%
X126200000Y-118500000D03*
D13*
X128700000Y-118500000D03*
X131200000Y-118500000D03*
%TD*%
M02*
