%TF.GenerationSoftware,KiCad,Pcbnew,(6.0.7)*%
%TF.CreationDate,2023-02-10T17:06:25+01:00*%
%TF.ProjectId,STM32L0_ESP32_Breakout_Board,53544d33-324c-4305-9f45-535033325f42,rev?*%
%TF.SameCoordinates,Original*%
%TF.FileFunction,Copper,L1,Top*%
%TF.FilePolarity,Positive*%
%FSLAX46Y46*%
G04 Gerber Fmt 4.6, Leading zero omitted, Abs format (unit mm)*
G04 Created by KiCad (PCBNEW (6.0.7)) date 2023-02-10 17:06:25*
%MOMM*%
%LPD*%
G01*
G04 APERTURE LIST*
G04 Aperture macros list*
%AMRoundRect*
0 Rectangle with rounded corners*
0 $1 Rounding radius*
0 $2 $3 $4 $5 $6 $7 $8 $9 X,Y pos of 4 corners*
0 Add a 4 corners polygon primitive as box body*
4,1,4,$2,$3,$4,$5,$6,$7,$8,$9,$2,$3,0*
0 Add four circle primitives for the rounded corners*
1,1,$1+$1,$2,$3*
1,1,$1+$1,$4,$5*
1,1,$1+$1,$6,$7*
1,1,$1+$1,$8,$9*
0 Add four rect primitives between the rounded corners*
20,1,$1+$1,$2,$3,$4,$5,0*
20,1,$1+$1,$4,$5,$6,$7,0*
20,1,$1+$1,$6,$7,$8,$9,0*
20,1,$1+$1,$8,$9,$2,$3,0*%
%AMFreePoly0*
4,1,14,0.230680,0.111820,0.364320,-0.021821,0.377500,-0.053642,0.377500,-0.080000,0.364320,-0.111820,0.332500,-0.125000,-0.332500,-0.125000,-0.364320,-0.111820,-0.377500,-0.080000,-0.377500,0.080000,-0.364320,0.111820,-0.332500,0.125000,0.198860,0.125000,0.230680,0.111820,0.230680,0.111820,$1*%
%AMFreePoly1*
4,1,14,0.364320,0.111820,0.377500,0.080000,0.377501,0.053640,0.364318,0.021819,0.230680,-0.111820,0.198860,-0.125000,-0.332500,-0.125000,-0.364320,-0.111820,-0.377500,-0.080000,-0.377500,0.080000,-0.364320,0.111820,-0.332500,0.125000,0.332500,0.125000,0.364320,0.111820,0.364320,0.111820,$1*%
%AMFreePoly2*
4,1,15,0.053642,0.377500,0.080000,0.377500,0.111820,0.364320,0.125000,0.332500,0.125000,-0.332500,0.111820,-0.364320,0.080000,-0.377500,-0.080000,-0.377500,-0.111820,-0.364320,-0.125000,-0.332500,-0.125000,0.198860,-0.111820,0.230680,0.021820,0.364320,0.053640,0.377501,0.053642,0.377500,0.053642,0.377500,$1*%
%AMFreePoly3*
4,1,14,-0.021820,0.364320,0.111820,0.230679,0.125000,0.198858,0.125000,-0.332500,0.111820,-0.364320,0.080000,-0.377500,-0.080000,-0.377500,-0.111820,-0.364320,-0.125000,-0.332500,-0.125000,0.332500,-0.111820,0.364320,-0.080000,0.377500,-0.053640,0.377500,-0.021820,0.364320,-0.021820,0.364320,$1*%
%AMFreePoly4*
4,1,14,0.364320,0.111820,0.377500,0.080000,0.377500,-0.080000,0.364320,-0.111820,0.332500,-0.125000,-0.198860,-0.125001,-0.230681,-0.111818,-0.364320,0.021820,-0.377500,0.053640,-0.377500,0.080000,-0.364320,0.111820,-0.332500,0.125000,0.332500,0.125000,0.364320,0.111820,0.364320,0.111820,$1*%
%AMFreePoly5*
4,1,15,-0.198858,0.125000,0.332500,0.125000,0.364320,0.111820,0.377500,0.080000,0.377500,-0.080000,0.364320,-0.111820,0.332500,-0.125000,-0.332500,-0.125000,-0.364320,-0.111820,-0.377500,-0.080000,-0.377500,-0.053640,-0.364320,-0.021820,-0.230680,0.111820,-0.198860,0.125001,-0.198858,0.125000,-0.198858,0.125000,$1*%
%AMFreePoly6*
4,1,14,0.111820,0.364320,0.125000,0.332500,0.125001,-0.198860,0.111818,-0.230681,-0.021820,-0.364320,-0.053640,-0.377500,-0.080000,-0.377500,-0.111820,-0.364320,-0.125000,-0.332500,-0.125000,0.332500,-0.111820,0.364320,-0.080000,0.377500,0.080000,0.377500,0.111820,0.364320,0.111820,0.364320,$1*%
%AMFreePoly7*
4,1,14,0.111820,0.364320,0.125000,0.332500,0.125000,-0.332500,0.111820,-0.364320,0.080000,-0.377500,0.053640,-0.377501,0.021819,-0.364318,-0.111820,-0.230680,-0.125000,-0.198860,-0.125000,0.332500,-0.111820,0.364320,-0.080000,0.377500,0.080000,0.377500,0.111820,0.364320,0.111820,0.364320,$1*%
G04 Aperture macros list end*
%TA.AperFunction,SMDPad,CuDef*%
%ADD10RoundRect,0.140000X0.170000X-0.140000X0.170000X0.140000X-0.170000X0.140000X-0.170000X-0.140000X0*%
%TD*%
%TA.AperFunction,SMDPad,CuDef*%
%ADD11RoundRect,0.135000X0.135000X0.185000X-0.135000X0.185000X-0.135000X-0.185000X0.135000X-0.185000X0*%
%TD*%
%TA.AperFunction,SMDPad,CuDef*%
%ADD12R,1.500000X2.000000*%
%TD*%
%TA.AperFunction,SMDPad,CuDef*%
%ADD13R,3.800000X2.000000*%
%TD*%
%TA.AperFunction,SMDPad,CuDef*%
%ADD14RoundRect,0.135000X-0.135000X-0.185000X0.135000X-0.185000X0.135000X0.185000X-0.135000X0.185000X0*%
%TD*%
%TA.AperFunction,SMDPad,CuDef*%
%ADD15RoundRect,0.140000X-0.170000X0.140000X-0.170000X-0.140000X0.170000X-0.140000X0.170000X0.140000X0*%
%TD*%
%TA.AperFunction,ComponentPad*%
%ADD16C,0.900000*%
%TD*%
%TA.AperFunction,ComponentPad*%
%ADD17C,8.600000*%
%TD*%
%TA.AperFunction,SMDPad,CuDef*%
%ADD18FreePoly0,180.000000*%
%TD*%
%TA.AperFunction,SMDPad,CuDef*%
%ADD19RoundRect,0.062500X0.375000X0.062500X-0.375000X0.062500X-0.375000X-0.062500X0.375000X-0.062500X0*%
%TD*%
%TA.AperFunction,SMDPad,CuDef*%
%ADD20FreePoly1,180.000000*%
%TD*%
%TA.AperFunction,SMDPad,CuDef*%
%ADD21FreePoly2,180.000000*%
%TD*%
%TA.AperFunction,SMDPad,CuDef*%
%ADD22RoundRect,0.062500X0.062500X0.375000X-0.062500X0.375000X-0.062500X-0.375000X0.062500X-0.375000X0*%
%TD*%
%TA.AperFunction,SMDPad,CuDef*%
%ADD23FreePoly3,180.000000*%
%TD*%
%TA.AperFunction,SMDPad,CuDef*%
%ADD24FreePoly4,180.000000*%
%TD*%
%TA.AperFunction,SMDPad,CuDef*%
%ADD25FreePoly5,180.000000*%
%TD*%
%TA.AperFunction,SMDPad,CuDef*%
%ADD26FreePoly6,180.000000*%
%TD*%
%TA.AperFunction,SMDPad,CuDef*%
%ADD27FreePoly7,180.000000*%
%TD*%
%TA.AperFunction,SMDPad,CuDef*%
%ADD28RoundRect,0.218750X-0.218750X-0.256250X0.218750X-0.256250X0.218750X0.256250X-0.218750X0.256250X0*%
%TD*%
%TA.AperFunction,ComponentPad*%
%ADD29RoundRect,0.250000X0.600000X0.725000X-0.600000X0.725000X-0.600000X-0.725000X0.600000X-0.725000X0*%
%TD*%
%TA.AperFunction,ComponentPad*%
%ADD30O,1.700000X1.950000*%
%TD*%
%TA.AperFunction,SMDPad,CuDef*%
%ADD31R,1.400000X1.150000*%
%TD*%
%TA.AperFunction,SMDPad,CuDef*%
%ADD32RoundRect,0.135000X0.185000X-0.135000X0.185000X0.135000X-0.185000X0.135000X-0.185000X-0.135000X0*%
%TD*%
%TA.AperFunction,SMDPad,CuDef*%
%ADD33R,0.900000X2.000000*%
%TD*%
%TA.AperFunction,SMDPad,CuDef*%
%ADD34R,2.000000X0.900000*%
%TD*%
%TA.AperFunction,SMDPad,CuDef*%
%ADD35R,5.000000X5.000000*%
%TD*%
%TA.AperFunction,SMDPad,CuDef*%
%ADD36R,0.900000X1.700000*%
%TD*%
%TA.AperFunction,SMDPad,CuDef*%
%ADD37RoundRect,0.140000X-0.140000X-0.170000X0.140000X-0.170000X0.140000X0.170000X-0.140000X0.170000X0*%
%TD*%
%TA.AperFunction,SMDPad,CuDef*%
%ADD38RoundRect,0.225000X0.250000X-0.225000X0.250000X0.225000X-0.250000X0.225000X-0.250000X-0.225000X0*%
%TD*%
%TA.AperFunction,SMDPad,CuDef*%
%ADD39RoundRect,0.147500X-0.147500X-0.172500X0.147500X-0.172500X0.147500X0.172500X-0.147500X0.172500X0*%
%TD*%
%TA.AperFunction,ComponentPad*%
%ADD40RoundRect,0.250000X-0.750000X0.600000X-0.750000X-0.600000X0.750000X-0.600000X0.750000X0.600000X0*%
%TD*%
%TA.AperFunction,ComponentPad*%
%ADD41O,2.000000X1.700000*%
%TD*%
%TA.AperFunction,SMDPad,CuDef*%
%ADD42RoundRect,0.225000X0.225000X0.250000X-0.225000X0.250000X-0.225000X-0.250000X0.225000X-0.250000X0*%
%TD*%
%TA.AperFunction,SMDPad,CuDef*%
%ADD43RoundRect,0.218750X0.218750X0.256250X-0.218750X0.256250X-0.218750X-0.256250X0.218750X-0.256250X0*%
%TD*%
%TA.AperFunction,ComponentPad*%
%ADD44RoundRect,0.250000X-0.600000X-0.725000X0.600000X-0.725000X0.600000X0.725000X-0.600000X0.725000X0*%
%TD*%
%TA.AperFunction,ViaPad*%
%ADD45C,0.450000*%
%TD*%
%TA.AperFunction,ViaPad*%
%ADD46C,0.700000*%
%TD*%
%TA.AperFunction,Conductor*%
%ADD47C,0.800000*%
%TD*%
%TA.AperFunction,Conductor*%
%ADD48C,0.250000*%
%TD*%
%TA.AperFunction,Conductor*%
%ADD49C,0.560000*%
%TD*%
G04 APERTURE END LIST*
D10*
%TO.P,C8,1*%
%TO.N,HSE_OUT*%
X134100000Y-98480000D03*
%TO.P,C8,2*%
%TO.N,GND*%
X134100000Y-97520000D03*
%TD*%
D11*
%TO.P,R1,1*%
%TO.N,Net-(D1-Pad1)*%
X121502500Y-89060000D03*
%TO.P,R1,2*%
%TO.N,GND*%
X120482500Y-89060000D03*
%TD*%
D12*
%TO.P,U1,1,GND*%
%TO.N,GND*%
X112000000Y-95650000D03*
D13*
%TO.P,U1,2,VO*%
%TO.N,+3.3V*%
X114300000Y-89350000D03*
D12*
X114300000Y-95650000D03*
%TO.P,U1,3,VI*%
%TO.N,VCC*%
X116600000Y-95650000D03*
%TD*%
D14*
%TO.P,R2,1*%
%TO.N,BOOT0*%
X129165000Y-101300000D03*
%TO.P,R2,2*%
%TO.N,GND*%
X130185000Y-101300000D03*
%TD*%
D15*
%TO.P,C3,1*%
%TO.N,+3.3V*%
X132200000Y-99645000D03*
%TO.P,C3,2*%
%TO.N,GND*%
X132200000Y-100605000D03*
%TD*%
D16*
%TO.P,H4,1,1*%
%TO.N,GND*%
X117280419Y-116719581D03*
X115000000Y-115775000D03*
X111775000Y-119000000D03*
X112719581Y-116719581D03*
X118225000Y-119000000D03*
X115000000Y-122225000D03*
X112719581Y-121280419D03*
X117280419Y-121280419D03*
D17*
X115000000Y-119000000D03*
%TD*%
D18*
%TO.P,U2,1,VDD*%
%TO.N,+3.3V*%
X129997500Y-99500000D03*
D19*
%TO.P,U2,2,PC14*%
%TO.N,HSE_IN*%
X129937500Y-99000000D03*
%TO.P,U2,3,PC15*%
%TO.N,HSE_OUT*%
X129937500Y-98500000D03*
%TO.P,U2,4,NRST*%
%TO.N,NRST*%
X129937500Y-98000000D03*
%TO.P,U2,5,VDDA*%
%TO.N,+3.3VA*%
X129937500Y-97500000D03*
%TO.P,U2,6,PA0*%
%TO.N,unconnected-(U2-Pad6)*%
X129937500Y-97000000D03*
D20*
%TO.P,U2,7,PA1*%
%TO.N,ADC*%
X129997500Y-96500000D03*
D21*
%TO.P,U2,8,PA2*%
%TO.N,PWM*%
X129500000Y-96002500D03*
D22*
%TO.P,U2,9,PA3*%
%TO.N,STM_USR_LED*%
X129000000Y-96062500D03*
%TO.P,U2,10,PA4*%
%TO.N,unconnected-(U2-Pad10)*%
X128500000Y-96062500D03*
%TO.P,U2,11,PA5*%
%TO.N,unconnected-(U2-Pad11)*%
X128000000Y-96062500D03*
%TO.P,U2,12,PA6*%
%TO.N,unconnected-(U2-Pad12)*%
X127500000Y-96062500D03*
%TO.P,U2,13,PA7*%
%TO.N,unconnected-(U2-Pad13)*%
X127000000Y-96062500D03*
D23*
%TO.P,U2,14,PB0*%
%TO.N,unconnected-(U2-Pad14)*%
X126500000Y-96002500D03*
D24*
%TO.P,U2,15,PB1*%
%TO.N,unconnected-(U2-Pad15)*%
X126002500Y-96500000D03*
D19*
%TO.P,U2,16,VSS*%
%TO.N,GND*%
X126062500Y-97000000D03*
%TO.P,U2,17,VDD*%
%TO.N,+3.3V*%
X126062500Y-97500000D03*
%TO.P,U2,18,PA8*%
%TO.N,unconnected-(U2-Pad18)*%
X126062500Y-98000000D03*
%TO.P,U2,19,PA9*%
%TO.N,unconnected-(U2-Pad19)*%
X126062500Y-98500000D03*
%TO.P,U2,20,PA10*%
%TO.N,unconnected-(U2-Pad20)*%
X126062500Y-99000000D03*
D25*
%TO.P,U2,21,PA13*%
%TO.N,SWDIO*%
X126002500Y-99500000D03*
D26*
%TO.P,U2,22,PA14*%
%TO.N,SWDCLK*%
X126500000Y-99997500D03*
D22*
%TO.P,U2,23,PA15*%
%TO.N,unconnected-(U2-Pad23)*%
X127000000Y-99937500D03*
%TO.P,U2,24,PB3*%
%TO.N,unconnected-(U2-Pad24)*%
X127500000Y-99937500D03*
%TO.P,U2,25,PB6*%
%TO.N,UART_TX*%
X128000000Y-99937500D03*
%TO.P,U2,26,PB7*%
%TO.N,UART_RX*%
X128500000Y-99937500D03*
%TO.P,U2,27,BOOT0*%
%TO.N,BOOT0*%
X129000000Y-99937500D03*
D27*
%TO.P,U2,28,VSS*%
%TO.N,GND*%
X129500000Y-99997500D03*
%TD*%
D28*
%TO.P,D2,1,K*%
%TO.N,Net-(D2-Pad1)*%
X126712500Y-94400000D03*
%TO.P,D2,2,A*%
%TO.N,STM_USR_LED*%
X128287500Y-94400000D03*
%TD*%
%TO.P,D3,1,K*%
%TO.N,Net-(D3-Pad1)*%
X145457500Y-109600000D03*
%TO.P,D3,2,A*%
%TO.N,ESP_USR_LED*%
X147032500Y-109600000D03*
%TD*%
D29*
%TO.P,J3,1,Pin_1*%
%TO.N,+3.3V*%
X131100000Y-79450000D03*
D30*
%TO.P,J3,2,Pin_2*%
%TO.N,PWM*%
X128600000Y-79450000D03*
%TO.P,J3,3,Pin_3*%
%TO.N,GND*%
X126100000Y-79450000D03*
%TD*%
D31*
%TO.P,X1,1,1*%
%TO.N,HSE_IN*%
X135700000Y-99300000D03*
%TO.P,X1,2,2*%
%TO.N,GND*%
X137900000Y-99300000D03*
%TO.P,X1,3,3*%
%TO.N,HSE_OUT*%
X137900000Y-97700000D03*
%TO.P,X1,4,4*%
%TO.N,GND*%
X135700000Y-97700000D03*
%TD*%
D32*
%TO.P,R3,1*%
%TO.N,Net-(R3-Pad1)*%
X134675000Y-107510000D03*
%TO.P,R3,2*%
%TO.N,GND*%
X134675000Y-106490000D03*
%TD*%
D33*
%TO.P,U3,1,GND*%
%TO.N,GND*%
X159005000Y-90500000D03*
%TO.P,U3,2,VDD*%
%TO.N,+3.3V*%
X157735000Y-90500000D03*
%TO.P,U3,3,EN*%
%TO.N,EN*%
X156465000Y-90500000D03*
%TO.P,U3,4,SENSOR_VP*%
%TO.N,unconnected-(U3-Pad4)*%
X155195000Y-90500000D03*
%TO.P,U3,5,SENSOR_VN*%
%TO.N,unconnected-(U3-Pad5)*%
X153925000Y-90500000D03*
%TO.P,U3,6,IO34*%
%TO.N,unconnected-(U3-Pad6)*%
X152655000Y-90500000D03*
%TO.P,U3,7,IO35*%
%TO.N,unconnected-(U3-Pad7)*%
X151385000Y-90500000D03*
%TO.P,U3,8,IO32*%
%TO.N,unconnected-(U3-Pad8)*%
X150115000Y-90500000D03*
%TO.P,U3,9,IO33*%
%TO.N,unconnected-(U3-Pad9)*%
X148845000Y-90500000D03*
%TO.P,U3,10,IO25*%
%TO.N,unconnected-(U3-Pad10)*%
X147575000Y-90500000D03*
%TO.P,U3,11,IO26*%
%TO.N,unconnected-(U3-Pad11)*%
X146305000Y-90500000D03*
%TO.P,U3,12,IO27*%
%TO.N,unconnected-(U3-Pad12)*%
X145035000Y-90500000D03*
%TO.P,U3,13,IO14*%
%TO.N,unconnected-(U3-Pad13)*%
X143765000Y-90500000D03*
%TO.P,U3,14,IO12*%
%TO.N,unconnected-(U3-Pad14)*%
X142495000Y-90500000D03*
D34*
%TO.P,U3,15,GND*%
%TO.N,GND*%
X141495000Y-93285000D03*
%TO.P,U3,16,IO13*%
%TO.N,unconnected-(U3-Pad16)*%
X141495000Y-94555000D03*
%TO.P,U3,17,SHD/SD2*%
%TO.N,unconnected-(U3-Pad17)*%
X141495000Y-95825000D03*
%TO.P,U3,18,SWP/SD3*%
%TO.N,unconnected-(U3-Pad18)*%
X141495000Y-97095000D03*
%TO.P,U3,19,SCS/CMD*%
%TO.N,unconnected-(U3-Pad19)*%
X141495000Y-98365000D03*
%TO.P,U3,20,SCK/CLK*%
%TO.N,unconnected-(U3-Pad20)*%
X141495000Y-99635000D03*
%TO.P,U3,21,SDO/SD0*%
%TO.N,unconnected-(U3-Pad21)*%
X141495000Y-100905000D03*
%TO.P,U3,22,SDI/SD1*%
%TO.N,unconnected-(U3-Pad22)*%
X141495000Y-102175000D03*
%TO.P,U3,23,IO15*%
%TO.N,unconnected-(U3-Pad23)*%
X141495000Y-103445000D03*
%TO.P,U3,24,IO2*%
%TO.N,unconnected-(U3-Pad24)*%
X141495000Y-104715000D03*
D33*
%TO.P,U3,25,IO0*%
%TO.N,IO0*%
X142495000Y-107500000D03*
%TO.P,U3,26,IO4*%
%TO.N,unconnected-(U3-Pad26)*%
X143765000Y-107500000D03*
%TO.P,U3,27,IO16*%
%TO.N,unconnected-(U3-Pad27)*%
X145035000Y-107500000D03*
%TO.P,U3,28,IO17*%
%TO.N,unconnected-(U3-Pad28)*%
X146305000Y-107500000D03*
%TO.P,U3,29,IO5*%
%TO.N,ESP_USR_LED*%
X147575000Y-107500000D03*
%TO.P,U3,30,IO18*%
%TO.N,UART_RX*%
X148845000Y-107500000D03*
%TO.P,U3,31,IO19*%
%TO.N,UART_TX*%
X150115000Y-107500000D03*
%TO.P,U3,32,NC*%
%TO.N,unconnected-(U3-Pad32)*%
X151385000Y-107500000D03*
%TO.P,U3,33,IO21*%
%TO.N,unconnected-(U3-Pad33)*%
X152655000Y-107500000D03*
%TO.P,U3,34,RXD0/IO3*%
%TO.N,Prog_RX*%
X153925000Y-107500000D03*
%TO.P,U3,35,TXD0/IO1*%
%TO.N,Prog_TX*%
X155195000Y-107500000D03*
%TO.P,U3,36,IO22*%
%TO.N,unconnected-(U3-Pad36)*%
X156465000Y-107500000D03*
%TO.P,U3,37,IO23*%
%TO.N,unconnected-(U3-Pad37)*%
X157735000Y-107500000D03*
%TO.P,U3,38,GND*%
%TO.N,GND*%
X159005000Y-107500000D03*
D35*
%TO.P,U3,39,GND*%
X151505000Y-98000000D03*
%TD*%
D10*
%TO.P,C5,1*%
%TO.N,+3.3V*%
X124800000Y-97480000D03*
%TO.P,C5,2*%
%TO.N,GND*%
X124800000Y-96520000D03*
%TD*%
D14*
%TO.P,R4,1*%
%TO.N,Net-(D2-Pad1)*%
X126690000Y-93100000D03*
%TO.P,R4,2*%
%TO.N,GND*%
X127710000Y-93100000D03*
%TD*%
D36*
%TO.P,SW1,1,A*%
%TO.N,NRST*%
X132900000Y-89500000D03*
%TO.P,SW1,2,B*%
%TO.N,GND*%
X136300000Y-89500000D03*
%TD*%
D15*
%TO.P,C4,1*%
%TO.N,+3.3V*%
X131200000Y-99645000D03*
%TO.P,C4,2*%
%TO.N,GND*%
X131200000Y-100605000D03*
%TD*%
D32*
%TO.P,R5,1*%
%TO.N,Net-(R5-Pad1)*%
X151790000Y-87300000D03*
%TO.P,R5,2*%
%TO.N,GND*%
X151790000Y-86280000D03*
%TD*%
D37*
%TO.P,C7,1*%
%TO.N,+3.3VA*%
X131120000Y-95500000D03*
%TO.P,C7,2*%
%TO.N,GND*%
X132080000Y-95500000D03*
%TD*%
D14*
%TO.P,R6,1*%
%TO.N,Net-(D3-Pad1)*%
X145435000Y-110900000D03*
%TO.P,R6,2*%
%TO.N,GND*%
X146455000Y-110900000D03*
%TD*%
D38*
%TO.P,C2,1*%
%TO.N,+3.3V*%
X118800000Y-93250000D03*
%TO.P,C2,2*%
%TO.N,GND*%
X118800000Y-91700000D03*
%TD*%
D36*
%TO.P,SW2,1,A*%
%TO.N,IO0*%
X139350000Y-107500000D03*
%TO.P,SW2,2,B*%
%TO.N,Net-(R3-Pad1)*%
X135950000Y-107500000D03*
%TD*%
D29*
%TO.P,J4,1,Pin_1*%
%TO.N,+3.3V*%
X143900000Y-79450000D03*
D30*
%TO.P,J4,2,Pin_2*%
%TO.N,ADC*%
X141400000Y-79450000D03*
%TO.P,J4,3,Pin_3*%
%TO.N,GND*%
X138900000Y-79450000D03*
%TD*%
D16*
%TO.P,H1,1,1*%
%TO.N,GND*%
X118225000Y-79000000D03*
X117280419Y-76719581D03*
X115000000Y-82225000D03*
X112719581Y-81280419D03*
X115000000Y-75775000D03*
X117280419Y-81280419D03*
X112719581Y-76719581D03*
D17*
X115000000Y-79000000D03*
D16*
X111775000Y-79000000D03*
%TD*%
D39*
%TO.P,FB1,1*%
%TO.N,+3.3VA*%
X131115000Y-94500000D03*
%TO.P,FB1,2*%
%TO.N,+3.3V*%
X132085000Y-94500000D03*
%TD*%
D17*
%TO.P,H3,1,1*%
%TO.N,GND*%
X155000000Y-119000000D03*
D16*
X155000000Y-122225000D03*
X151775000Y-119000000D03*
X152719581Y-121280419D03*
X158225000Y-119000000D03*
X155000000Y-115775000D03*
X152719581Y-116719581D03*
X157280419Y-121280419D03*
X157280419Y-116719581D03*
%TD*%
%TO.P,H2,1,1*%
%TO.N,GND*%
X152719581Y-81280419D03*
X157280419Y-76719581D03*
X158225000Y-79000000D03*
X157280419Y-81280419D03*
X152719581Y-76719581D03*
X151775000Y-79000000D03*
X155000000Y-82225000D03*
D17*
X155000000Y-79000000D03*
D16*
X155000000Y-75775000D03*
%TD*%
D40*
%TO.P,J1,1,Pin_1*%
%TO.N,VCC*%
X115450000Y-101750000D03*
D41*
%TO.P,J1,2,Pin_2*%
%TO.N,GND*%
X115450000Y-104250000D03*
%TD*%
D15*
%TO.P,C9,1*%
%TO.N,HSE_IN*%
X134100000Y-99420000D03*
%TO.P,C9,2*%
%TO.N,GND*%
X134100000Y-100380000D03*
%TD*%
D42*
%TO.P,C1,1*%
%TO.N,VCC*%
X115075000Y-97800000D03*
%TO.P,C1,2*%
%TO.N,GND*%
X113525000Y-97800000D03*
%TD*%
D36*
%TO.P,SW3,1,A*%
%TO.N,EN*%
X156470000Y-87340000D03*
%TO.P,SW3,2,B*%
%TO.N,Net-(R5-Pad1)*%
X153070000Y-87340000D03*
%TD*%
D43*
%TO.P,D1,1,K*%
%TO.N,Net-(D1-Pad1)*%
X121530000Y-87735000D03*
%TO.P,D1,2,A*%
%TO.N,+3.3V*%
X119955000Y-87735000D03*
%TD*%
D44*
%TO.P,J5,1,Pin_1*%
%TO.N,Prog_RX*%
X139000000Y-118500000D03*
D30*
%TO.P,J5,2,Pin_2*%
%TO.N,Prog_TX*%
X141500000Y-118500000D03*
%TO.P,J5,3,Pin_3*%
%TO.N,GND*%
X144000000Y-118500000D03*
%TD*%
D44*
%TO.P,J2,1,Pin_1*%
%TO.N,SWDIO*%
X126200000Y-118500000D03*
D30*
%TO.P,J2,2,Pin_2*%
%TO.N,SWDCLK*%
X128700000Y-118500000D03*
%TO.P,J2,3,Pin_3*%
%TO.N,GND*%
X131200000Y-118500000D03*
%TD*%
D37*
%TO.P,C6,1*%
%TO.N,+3.3VA*%
X131120000Y-96500000D03*
%TO.P,C6,2*%
%TO.N,GND*%
X132080000Y-96500000D03*
%TD*%
D45*
%TO.N,GND*%
X122000000Y-91000000D03*
X149500000Y-96000000D03*
X125800000Y-107600000D03*
X127400000Y-116600000D03*
X136000000Y-95000000D03*
X153500000Y-100000000D03*
X122000000Y-100000000D03*
X137000000Y-93000000D03*
X146000000Y-77000000D03*
X119000000Y-100000000D03*
D46*
X159000000Y-109400000D03*
D45*
X137000000Y-113100000D03*
X126000000Y-77000000D03*
X142000000Y-87000000D03*
X122000000Y-94000000D03*
D46*
X137960000Y-100680000D03*
D45*
X138000000Y-77000000D03*
X130200000Y-106600000D03*
D46*
X120100000Y-91700000D03*
X151800000Y-85370000D03*
D45*
X142000000Y-77000000D03*
X125000000Y-83000000D03*
X142000000Y-83000000D03*
X116000000Y-87000000D03*
X151500000Y-98000000D03*
X119000000Y-97000000D03*
D46*
X119517500Y-89035000D03*
D45*
X149000000Y-116000000D03*
X152000000Y-110000000D03*
D46*
X128600000Y-93100000D03*
D45*
X153500000Y-96000000D03*
D46*
X112200000Y-97800000D03*
D45*
X138000000Y-83000000D03*
X121000000Y-83000000D03*
X148800000Y-112700000D03*
D46*
X132200000Y-101475000D03*
D45*
X122000000Y-103000000D03*
X119000000Y-103000000D03*
D46*
X147400000Y-110900000D03*
D45*
X114000000Y-109000000D03*
D46*
X133125000Y-100575000D03*
D45*
X112000000Y-87000000D03*
D46*
X131225000Y-101475000D03*
D45*
X121000000Y-77000000D03*
D46*
X118800000Y-90500000D03*
X111300000Y-97800000D03*
D45*
X122000000Y-106000000D03*
X146000000Y-83000000D03*
X125000000Y-87000000D03*
X149500000Y-98000000D03*
D46*
X133600000Y-106500000D03*
X120517500Y-90135000D03*
D45*
X158000000Y-112000000D03*
X131800000Y-108200000D03*
X150000000Y-83000000D03*
X134000000Y-83000000D03*
D46*
X134100000Y-101475000D03*
D45*
X150000000Y-87000000D03*
X151500000Y-96000000D03*
X130000000Y-87000000D03*
X130000000Y-83000000D03*
D46*
X112000000Y-93900000D03*
D45*
X130000000Y-84900000D03*
X154600000Y-110000000D03*
X146000000Y-87000000D03*
D46*
X159000000Y-88600000D03*
D45*
X142900000Y-113100000D03*
D46*
X133125000Y-101475000D03*
D45*
X134000000Y-114900000D03*
X142900000Y-116000000D03*
X138000000Y-84900000D03*
X151500000Y-100000000D03*
X134000000Y-77000000D03*
X125900000Y-111500000D03*
X127300000Y-97300000D03*
X122000000Y-97000000D03*
X114000000Y-112000000D03*
X130000000Y-77000000D03*
X134000000Y-84900000D03*
X153500000Y-98000000D03*
X149500000Y-109800000D03*
X143300000Y-114600000D03*
D46*
X132073056Y-97325500D03*
X139700000Y-93300000D03*
D45*
X158000000Y-115000000D03*
D46*
X127800000Y-92100000D03*
D45*
X119000000Y-106000000D03*
X152000000Y-113300000D03*
X125800000Y-103000000D03*
D46*
X137400000Y-89500000D03*
D45*
X150000000Y-77000000D03*
D46*
X124800000Y-95600000D03*
D45*
X149500000Y-100000000D03*
D46*
%TO.N,+3.3V*%
X112400000Y-91500000D03*
X120100000Y-93250000D03*
X114300000Y-93950000D03*
X118800000Y-94600000D03*
X116200000Y-91500000D03*
X124800000Y-98400000D03*
X132100000Y-93400000D03*
X157750000Y-88600000D03*
D45*
X133005000Y-99700000D03*
D46*
X118817500Y-87735000D03*
%TD*%
D47*
%TO.N,GND*%
X159005000Y-90500000D02*
X159005000Y-88605000D01*
D48*
X129500000Y-99997500D02*
X129500000Y-100300000D01*
D47*
X146455000Y-110900000D02*
X147400000Y-110900000D01*
D48*
X130185000Y-100985000D02*
X130185000Y-101300000D01*
D47*
X136300000Y-89500000D02*
X137400000Y-89500000D01*
X132200000Y-100605000D02*
X133095000Y-100605000D01*
X131200000Y-100605000D02*
X132200000Y-100605000D01*
D49*
X124800000Y-96520000D02*
X124800000Y-95600000D01*
D48*
X126062500Y-97000000D02*
X127000000Y-97000000D01*
X127000000Y-97000000D02*
X127300000Y-97300000D01*
D47*
X131225000Y-101475000D02*
X131225000Y-100630000D01*
X133125000Y-100575000D02*
X133905000Y-100575000D01*
X134675000Y-106490000D02*
X133610000Y-106490000D01*
X112000000Y-95650000D02*
X112000000Y-93900000D01*
D49*
X120482500Y-89060000D02*
X120482500Y-90100000D01*
X127710000Y-93100000D02*
X127710000Y-92190000D01*
X127710000Y-93100000D02*
X128600000Y-93100000D01*
D47*
X112000000Y-97600000D02*
X112200000Y-97800000D01*
X132200000Y-101475000D02*
X133125000Y-101475000D01*
X133125000Y-100575000D02*
X133125000Y-101475000D01*
X130505000Y-101300000D02*
X131200000Y-100605000D01*
X133125000Y-101475000D02*
X134100000Y-101475000D01*
X131225000Y-100630000D02*
X131200000Y-100605000D01*
D49*
X135520000Y-97520000D02*
X135700000Y-97700000D01*
D47*
X151790000Y-86280000D02*
X151790000Y-85380000D01*
X131225000Y-101475000D02*
X132200000Y-101475000D01*
X133100000Y-100575000D02*
X132200000Y-101475000D01*
X141495000Y-93285000D02*
X139715000Y-93285000D01*
D48*
X137525000Y-99300000D02*
X136400000Y-98175000D01*
D47*
X159005000Y-109395000D02*
X159000000Y-109400000D01*
D49*
X120457500Y-89035000D02*
X120482500Y-89060000D01*
D47*
X133095000Y-100605000D02*
X133125000Y-100575000D01*
X113525000Y-97800000D02*
X112200000Y-97800000D01*
X112000000Y-95650000D02*
X112000000Y-97600000D01*
X134100000Y-100380000D02*
X134100000Y-101475000D01*
X137960000Y-100680000D02*
X137960000Y-99360000D01*
X132200000Y-101475000D02*
X132200000Y-100605000D01*
X159005000Y-88605000D02*
X159000000Y-88600000D01*
X132200000Y-100605000D02*
X132095000Y-100605000D01*
X112000000Y-95650000D02*
X112000000Y-97100000D01*
X130185000Y-101300000D02*
X130505000Y-101300000D01*
D48*
X137900000Y-99300000D02*
X137525000Y-99300000D01*
D47*
X133905000Y-100575000D02*
X134100000Y-100380000D01*
X118800000Y-91700000D02*
X118800000Y-90500000D01*
D49*
X119517500Y-89035000D02*
X120457500Y-89035000D01*
X132080000Y-96500000D02*
X132080000Y-97318556D01*
X134100000Y-97520000D02*
X135520000Y-97520000D01*
D47*
X133125000Y-100575000D02*
X133200000Y-100575000D01*
X112200000Y-97800000D02*
X111300000Y-97800000D01*
X132095000Y-100605000D02*
X131225000Y-101475000D01*
D49*
X132080000Y-97318556D02*
X132073056Y-97325500D01*
X127710000Y-92190000D02*
X127800000Y-92100000D01*
D47*
X159005000Y-107500000D02*
X159005000Y-109395000D01*
X118800000Y-91700000D02*
X120100000Y-91700000D01*
X133125000Y-100575000D02*
X133100000Y-100575000D01*
D49*
X120482500Y-90100000D02*
X120517500Y-90135000D01*
X120517500Y-90135000D02*
X120517500Y-90035000D01*
D47*
X137960000Y-99360000D02*
X137900000Y-99300000D01*
D49*
X132080000Y-95500000D02*
X132080000Y-96500000D01*
D47*
X139715000Y-93285000D02*
X139700000Y-93300000D01*
D48*
X129500000Y-100300000D02*
X130185000Y-100985000D01*
D47*
X151790000Y-85380000D02*
X151800000Y-85370000D01*
X112000000Y-97100000D02*
X111300000Y-97800000D01*
X131050000Y-101300000D02*
X131225000Y-101475000D01*
X130185000Y-101300000D02*
X131050000Y-101300000D01*
X133610000Y-106490000D02*
X133600000Y-106500000D01*
D49*
X120517500Y-90035000D02*
X119517500Y-89035000D01*
D47*
X133200000Y-100575000D02*
X134100000Y-101475000D01*
%TO.N,+3.3V*%
X132085000Y-93415000D02*
X132100000Y-93400000D01*
D49*
X132255000Y-99700000D02*
X133005000Y-99700000D01*
D47*
X157735000Y-90500000D02*
X157735000Y-88615000D01*
D48*
X130675000Y-99650000D02*
X131195000Y-99650000D01*
D49*
X132200000Y-99645000D02*
X132255000Y-99700000D01*
D48*
X131195000Y-99650000D02*
X131200000Y-99645000D01*
X126062500Y-97500000D02*
X124820000Y-97500000D01*
X130525000Y-99500000D02*
X130675000Y-99650000D01*
D47*
X118800000Y-93250000D02*
X120100000Y-93250000D01*
X118800000Y-93250000D02*
X118800000Y-94600000D01*
D48*
X124820000Y-97500000D02*
X124800000Y-97480000D01*
D47*
X157735000Y-88615000D02*
X157750000Y-88600000D01*
D49*
X132200000Y-99645000D02*
X131200000Y-99645000D01*
D47*
X124800000Y-98400000D02*
X124800000Y-97480000D01*
D48*
X129997500Y-99500000D02*
X130525000Y-99500000D01*
D47*
X132085000Y-94500000D02*
X132085000Y-93415000D01*
X119955000Y-87735000D02*
X118817500Y-87735000D01*
D48*
%TO.N,HSE_OUT*%
X133750000Y-96675000D02*
X133375000Y-97050000D01*
X137900000Y-97700000D02*
X136875000Y-96675000D01*
X134080000Y-98500000D02*
X134100000Y-98480000D01*
X136875000Y-96675000D02*
X133750000Y-96675000D01*
X133375000Y-97762609D02*
X134092391Y-98480000D01*
X133375000Y-97050000D02*
X133375000Y-97762609D01*
X129937500Y-98500000D02*
X134080000Y-98500000D01*
X134092391Y-98480000D02*
X134100000Y-98480000D01*
%TO.N,HSE_IN*%
X133870000Y-99420000D02*
X133450000Y-99000000D01*
X135580000Y-99420000D02*
X135700000Y-99300000D01*
X133450000Y-99000000D02*
X129937500Y-99000000D01*
X134100000Y-99420000D02*
X135580000Y-99420000D01*
X134100000Y-99420000D02*
X133870000Y-99420000D01*
D47*
%TO.N,Net-(D1-Pad1)*%
X121530000Y-89032500D02*
X121502500Y-89060000D01*
X121530000Y-87735000D02*
X121530000Y-89032500D01*
%TO.N,Net-(D2-Pad1)*%
X126712500Y-93122500D02*
X126690000Y-93100000D01*
X126712500Y-94400000D02*
X126712500Y-93122500D01*
D48*
%TO.N,STM_USR_LED*%
X129000000Y-96062500D02*
X129000000Y-95112500D01*
X129000000Y-95112500D02*
X128287500Y-94400000D01*
D49*
%TO.N,Net-(D3-Pad1)*%
X145435000Y-109622500D02*
X145457500Y-109600000D01*
X145435000Y-110900000D02*
X145435000Y-109622500D01*
D47*
%TO.N,ESP_USR_LED*%
X147575000Y-107500000D02*
X147575000Y-109057500D01*
X147575000Y-109057500D02*
X147032500Y-109600000D01*
D48*
%TO.N,SWDIO*%
X125075000Y-114875000D02*
X126200000Y-116000000D01*
X126002500Y-99500000D02*
X125200000Y-99500000D01*
X125200000Y-99500000D02*
X125075000Y-99625000D01*
X125075000Y-99625000D02*
X125075000Y-114875000D01*
X126200000Y-116000000D02*
X126200000Y-118500000D01*
%TO.N,SWDCLK*%
X128700000Y-113000000D02*
X128700000Y-118500000D01*
X126500000Y-99997500D02*
X126500000Y-110800000D01*
X126500000Y-110800000D02*
X128700000Y-113000000D01*
%TO.N,ADC*%
X141400000Y-83800000D02*
X141400000Y-79450000D01*
X131000000Y-88100000D02*
X132400000Y-86700000D01*
X131000000Y-93100000D02*
X131000000Y-88100000D01*
X129997500Y-94102500D02*
X131000000Y-93100000D01*
X138500000Y-86700000D02*
X141400000Y-83800000D01*
X132400000Y-86700000D02*
X138500000Y-86700000D01*
X129997500Y-96500000D02*
X129997500Y-94102500D01*
%TO.N,PWM*%
X129500000Y-96002500D02*
X129500000Y-89600000D01*
X128600000Y-88700000D02*
X128600000Y-79450000D01*
X129500000Y-89600000D02*
X128600000Y-88700000D01*
%TO.N,Prog_TX*%
X155195000Y-111105000D02*
X149600000Y-116700000D01*
X155195000Y-107500000D02*
X155195000Y-111105000D01*
X141500000Y-117400000D02*
X141500000Y-118500000D01*
X149600000Y-116700000D02*
X142200000Y-116700000D01*
X142200000Y-116700000D02*
X141500000Y-117400000D01*
%TO.N,Prog_RX*%
X153925000Y-110175000D02*
X148875000Y-115225000D01*
X153925000Y-107500000D02*
X153925000Y-110175000D01*
X140975000Y-115225000D02*
X139000000Y-117200000D01*
X139000000Y-117200000D02*
X139000000Y-118500000D01*
X148875000Y-115225000D02*
X140975000Y-115225000D01*
%TO.N,BOOT0*%
X129000000Y-100575000D02*
X129175000Y-100750000D01*
X129175000Y-100750000D02*
X129175000Y-101290000D01*
X129000000Y-99937500D02*
X129000000Y-100575000D01*
X129175000Y-101290000D02*
X129165000Y-101300000D01*
D47*
%TO.N,Net-(R3-Pad1)*%
X134675000Y-107510000D02*
X135940000Y-107510000D01*
X135940000Y-107510000D02*
X135950000Y-107500000D01*
%TO.N,Net-(R5-Pad1)*%
X151790000Y-87300000D02*
X153060000Y-87300000D01*
X153060000Y-87300000D02*
X153100000Y-87340000D01*
D48*
%TO.N,NRST*%
X132900000Y-97500000D02*
X132900000Y-89500000D01*
X129937500Y-98000000D02*
X132400000Y-98000000D01*
X132400000Y-98000000D02*
X132900000Y-97500000D01*
D47*
%TO.N,IO0*%
X139350000Y-107500000D02*
X142495000Y-107500000D01*
%TO.N,EN*%
X156465000Y-87375000D02*
X156500000Y-87340000D01*
X156465000Y-90500000D02*
X156465000Y-87375000D01*
D48*
%TO.N,UART_TX*%
X150115000Y-112285000D02*
X150115000Y-107500000D01*
X127475000Y-101075000D02*
X127475000Y-105150000D01*
X136150000Y-113825000D02*
X148575000Y-113825000D01*
X148575000Y-113825000D02*
X150115000Y-112285000D01*
X127475000Y-105150000D02*
X136150000Y-113825000D01*
X128000000Y-99937500D02*
X128000000Y-100550000D01*
X128000000Y-100550000D02*
X127475000Y-101075000D01*
%TO.N,UART_RX*%
X128275000Y-103275000D02*
X128275000Y-101275000D01*
X128275000Y-101275000D02*
X128500000Y-101050000D01*
X137325000Y-112325000D02*
X128275000Y-103275000D01*
X148845000Y-107500000D02*
X148845000Y-111505000D01*
X128500000Y-101050000D02*
X128500000Y-99937500D01*
X148025000Y-112325000D02*
X137325000Y-112325000D01*
X148845000Y-111505000D02*
X148025000Y-112325000D01*
%TO.N,+3.3VA*%
X129937500Y-97500000D02*
X130750000Y-97500000D01*
D49*
X131115000Y-94500000D02*
X131115000Y-95495000D01*
X131120000Y-95500000D02*
X131120000Y-96500000D01*
X131115000Y-95495000D02*
X131120000Y-95500000D01*
D48*
X131120000Y-97130000D02*
X131120000Y-96500000D01*
X130750000Y-97500000D02*
X131120000Y-97130000D01*
%TD*%
%TA.AperFunction,Conductor*%
%TO.N,+3.3V*%
G36*
X116205931Y-88160002D02*
G01*
X116226905Y-88176905D01*
X116363095Y-88313095D01*
X116397121Y-88375407D01*
X116400000Y-88402190D01*
X116400000Y-90360000D01*
X116405515Y-90372219D01*
X116898845Y-91465284D01*
X116910000Y-91517117D01*
X116910000Y-92400000D01*
X117100000Y-92600000D01*
X119233122Y-92600000D01*
X119301243Y-92620002D01*
X119315477Y-92630639D01*
X119456357Y-92752308D01*
X119494838Y-92811970D01*
X119500000Y-92847667D01*
X119500000Y-93642590D01*
X119479998Y-93710711D01*
X119456679Y-93737670D01*
X119305558Y-93869080D01*
X119241029Y-93898686D01*
X119222879Y-93900000D01*
X115780000Y-93900000D01*
X115772992Y-93909917D01*
X115772990Y-93909919D01*
X115456265Y-94358115D01*
X115250000Y-94650000D01*
X115250000Y-96599692D01*
X115229998Y-96667813D01*
X115215356Y-96686467D01*
X115097255Y-96810784D01*
X115035837Y-96846394D01*
X115005907Y-96850000D01*
X113592190Y-96850000D01*
X113524069Y-96829998D01*
X113503095Y-96813095D01*
X113386905Y-96696905D01*
X113352879Y-96634593D01*
X113350000Y-96607810D01*
X113350000Y-94340000D01*
X113342673Y-94333162D01*
X113342673Y-94333161D01*
X113201575Y-94201470D01*
X113198452Y-94198452D01*
X113000000Y-94000000D01*
X112531762Y-93551687D01*
X112528312Y-93548254D01*
X112240081Y-93250084D01*
X112239779Y-93249770D01*
X112000998Y-93001039D01*
X112000986Y-93001027D01*
X112000000Y-93000000D01*
X111868260Y-92874847D01*
X111839218Y-92847257D01*
X111803606Y-92785837D01*
X111800000Y-92755907D01*
X111800000Y-91521289D01*
X111806993Y-91479895D01*
X112196528Y-90359983D01*
X112196528Y-90359981D01*
X112200000Y-90350000D01*
X112200000Y-88400400D01*
X112220002Y-88332279D01*
X112234759Y-88313503D01*
X112362759Y-88179103D01*
X112424223Y-88143569D01*
X112454000Y-88140000D01*
X116137810Y-88140000D01*
X116205931Y-88160002D01*
G37*
%TD.AperFunction*%
%TD*%
%TA.AperFunction,Conductor*%
%TO.N,VCC*%
G36*
X117307721Y-94520002D02*
G01*
X117326497Y-94534759D01*
X117460897Y-94662759D01*
X117496431Y-94724223D01*
X117500000Y-94754000D01*
X117500000Y-96651288D01*
X117479998Y-96719409D01*
X117467239Y-96736037D01*
X117337492Y-96878759D01*
X117276871Y-96915707D01*
X117244262Y-96920000D01*
X116900000Y-96920000D01*
X116690000Y-97100000D01*
X116690000Y-100800000D01*
X116697384Y-100807032D01*
X116860897Y-100962759D01*
X116896431Y-101024223D01*
X116900000Y-101054000D01*
X116900000Y-102463884D01*
X116879998Y-102532005D01*
X116858290Y-102557539D01*
X116735939Y-102667655D01*
X116671924Y-102698358D01*
X116651649Y-102700000D01*
X114467872Y-102700000D01*
X114399751Y-102679998D01*
X114355174Y-102630348D01*
X114303302Y-102526603D01*
X114290000Y-102470255D01*
X114290000Y-101052190D01*
X114310002Y-100984069D01*
X114326905Y-100963095D01*
X114490000Y-100800000D01*
X114490000Y-97463916D01*
X114510002Y-97395795D01*
X114529000Y-97372773D01*
X114673483Y-97234857D01*
X114736569Y-97202290D01*
X114760483Y-97200000D01*
X115010000Y-97200000D01*
X115160914Y-97088212D01*
X115277464Y-97001879D01*
X115277470Y-97001874D01*
X115280000Y-97000000D01*
X115500000Y-96800000D01*
X115700000Y-96600000D01*
X115700000Y-94752190D01*
X115720002Y-94684069D01*
X115736905Y-94663095D01*
X115863095Y-94536905D01*
X115925407Y-94502879D01*
X115952190Y-94500000D01*
X117239600Y-94500000D01*
X117307721Y-94520002D01*
G37*
%TD.AperFunction*%
%TD*%
M02*
