%TF.GenerationSoftware,KiCad,Pcbnew,(6.0.7)*%
%TF.CreationDate,2023-02-10T17:06:25+01:00*%
%TF.ProjectId,STM32L0_ESP32_Breakout_Board,53544d33-324c-4305-9f45-535033325f42,rev?*%
%TF.SameCoordinates,Original*%
%TF.FileFunction,Legend,Top*%
%TF.FilePolarity,Positive*%
%FSLAX46Y46*%
G04 Gerber Fmt 4.6, Leading zero omitted, Abs format (unit mm)*
G04 Created by KiCad (PCBNEW (6.0.7)) date 2023-02-10 17:06:25*
%MOMM*%
%LPD*%
G01*
G04 APERTURE LIST*
%ADD10C,0.150000*%
%ADD11C,0.100000*%
%ADD12C,0.120000*%
G04 APERTURE END LIST*
D10*
X134800000Y-100432142D02*
X134847619Y-100479761D01*
X134800000Y-100527380D01*
X134752380Y-100479761D01*
X134800000Y-100432142D01*
X134800000Y-100527380D01*
X125676190Y-115402380D02*
X125676190Y-114402380D01*
X126342857Y-114402380D02*
X126533333Y-114402380D01*
X126628571Y-114450000D01*
X126723809Y-114545238D01*
X126771428Y-114735714D01*
X126771428Y-115069047D01*
X126723809Y-115259523D01*
X126628571Y-115354761D01*
X126533333Y-115402380D01*
X126342857Y-115402380D01*
X126247619Y-115354761D01*
X126152380Y-115259523D01*
X126104761Y-115069047D01*
X126104761Y-114735714D01*
X126152380Y-114545238D01*
X126247619Y-114450000D01*
X126342857Y-114402380D01*
X128314285Y-83504761D02*
X128457142Y-83552380D01*
X128695238Y-83552380D01*
X128790476Y-83504761D01*
X128838095Y-83457142D01*
X128885714Y-83361904D01*
X128885714Y-83266666D01*
X128838095Y-83171428D01*
X128790476Y-83123809D01*
X128695238Y-83076190D01*
X128504761Y-83028571D01*
X128409523Y-82980952D01*
X128361904Y-82933333D01*
X128314285Y-82838095D01*
X128314285Y-82742857D01*
X128361904Y-82647619D01*
X128409523Y-82600000D01*
X128504761Y-82552380D01*
X128742857Y-82552380D01*
X128885714Y-82600000D01*
X117459166Y-86512380D02*
X117459166Y-85512380D01*
X117840119Y-85512380D01*
X117935357Y-85560000D01*
X117982976Y-85607619D01*
X118030595Y-85702857D01*
X118030595Y-85845714D01*
X117982976Y-85940952D01*
X117935357Y-85988571D01*
X117840119Y-86036190D01*
X117459166Y-86036190D01*
X118363928Y-85512380D02*
X118602023Y-86512380D01*
X118792500Y-85798095D01*
X118982976Y-86512380D01*
X119221071Y-85512380D01*
X120173452Y-86512380D02*
X119840119Y-86036190D01*
X119602023Y-86512380D02*
X119602023Y-85512380D01*
X119982976Y-85512380D01*
X120078214Y-85560000D01*
X120125833Y-85607619D01*
X120173452Y-85702857D01*
X120173452Y-85845714D01*
X120125833Y-85940952D01*
X120078214Y-85988571D01*
X119982976Y-86036190D01*
X119602023Y-86036190D01*
X120602023Y-86131428D02*
X121363928Y-86131428D01*
X121744880Y-85512380D02*
X122363928Y-85512380D01*
X122030595Y-85893333D01*
X122173452Y-85893333D01*
X122268690Y-85940952D01*
X122316309Y-85988571D01*
X122363928Y-86083809D01*
X122363928Y-86321904D01*
X122316309Y-86417142D01*
X122268690Y-86464761D01*
X122173452Y-86512380D01*
X121887738Y-86512380D01*
X121792500Y-86464761D01*
X121744880Y-86417142D01*
X122649642Y-85512380D02*
X122982976Y-86512380D01*
X123316309Y-85512380D01*
X123554404Y-85512380D02*
X124173452Y-85512380D01*
X123840119Y-85893333D01*
X123982976Y-85893333D01*
X124078214Y-85940952D01*
X124125833Y-85988571D01*
X124173452Y-86083809D01*
X124173452Y-86321904D01*
X124125833Y-86417142D01*
X124078214Y-86464761D01*
X123982976Y-86512380D01*
X123697261Y-86512380D01*
X123602023Y-86464761D01*
X123554404Y-86417142D01*
X129009523Y-115307142D02*
X128961904Y-115354761D01*
X128819047Y-115402380D01*
X128723809Y-115402380D01*
X128580952Y-115354761D01*
X128485714Y-115259523D01*
X128438095Y-115164285D01*
X128390476Y-114973809D01*
X128390476Y-114830952D01*
X128438095Y-114640476D01*
X128485714Y-114545238D01*
X128580952Y-114450000D01*
X128723809Y-114402380D01*
X128819047Y-114402380D01*
X128961904Y-114450000D01*
X129009523Y-114497619D01*
X128819047Y-93671428D02*
X129580952Y-93671428D01*
X129200000Y-94052380D02*
X129200000Y-93290476D01*
X130819047Y-83071428D02*
X131580952Y-83071428D01*
X131200000Y-83452380D02*
X131200000Y-82690476D01*
X119038095Y-103800000D02*
X118942857Y-103752380D01*
X118800000Y-103752380D01*
X118657142Y-103800000D01*
X118561904Y-103895238D01*
X118514285Y-103990476D01*
X118466666Y-104180952D01*
X118466666Y-104323809D01*
X118514285Y-104514285D01*
X118561904Y-104609523D01*
X118657142Y-104704761D01*
X118800000Y-104752380D01*
X118895238Y-104752380D01*
X119038095Y-104704761D01*
X119085714Y-104657142D01*
X119085714Y-104323809D01*
X118895238Y-104323809D01*
X119514285Y-104752380D02*
X119514285Y-103752380D01*
X120085714Y-104752380D01*
X120085714Y-103752380D01*
X120561904Y-104752380D02*
X120561904Y-103752380D01*
X120800000Y-103752380D01*
X120942857Y-103800000D01*
X121038095Y-103895238D01*
X121085714Y-103990476D01*
X121133333Y-104180952D01*
X121133333Y-104323809D01*
X121085714Y-104514285D01*
X121038095Y-104609523D01*
X120942857Y-104704761D01*
X120800000Y-104752380D01*
X120561904Y-104752380D01*
X140738095Y-114502380D02*
X141309523Y-114502380D01*
X141023809Y-115502380D02*
X141023809Y-114502380D01*
X141547619Y-114502380D02*
X142214285Y-115502380D01*
X142214285Y-114502380D02*
X141547619Y-115502380D01*
X147261904Y-79666666D02*
X147738095Y-79666666D01*
X147166666Y-79952380D02*
X147500000Y-78952380D01*
X147833333Y-79952380D01*
X148166666Y-79952380D02*
X148166666Y-78952380D01*
X148404761Y-78952380D01*
X148547619Y-79000000D01*
X148642857Y-79095238D01*
X148690476Y-79190476D01*
X148738095Y-79380952D01*
X148738095Y-79523809D01*
X148690476Y-79714285D01*
X148642857Y-79809523D01*
X148547619Y-79904761D01*
X148404761Y-79952380D01*
X148166666Y-79952380D01*
X149738095Y-79857142D02*
X149690476Y-79904761D01*
X149547619Y-79952380D01*
X149452380Y-79952380D01*
X149309523Y-79904761D01*
X149214285Y-79809523D01*
X149166666Y-79714285D01*
X149119047Y-79523809D01*
X149119047Y-79380952D01*
X149166666Y-79190476D01*
X149214285Y-79095238D01*
X149309523Y-79000000D01*
X149452380Y-78952380D01*
X149547619Y-78952380D01*
X149690476Y-79000000D01*
X149738095Y-79047619D01*
X120095238Y-79652380D02*
X120095238Y-78652380D01*
X120476190Y-78652380D01*
X120571428Y-78700000D01*
X120619047Y-78747619D01*
X120666666Y-78842857D01*
X120666666Y-78985714D01*
X120619047Y-79080952D01*
X120571428Y-79128571D01*
X120476190Y-79176190D01*
X120095238Y-79176190D01*
X121000000Y-78652380D02*
X121238095Y-79652380D01*
X121428571Y-78938095D01*
X121619047Y-79652380D01*
X121857142Y-78652380D01*
X122238095Y-79652380D02*
X122238095Y-78652380D01*
X122571428Y-79366666D01*
X122904761Y-78652380D01*
X122904761Y-79652380D01*
X118211547Y-88731428D02*
X118973452Y-88731428D01*
X118592500Y-89112380D02*
X118592500Y-88350476D01*
X110890000Y-97257142D02*
X110937619Y-97304761D01*
X110890000Y-97352380D01*
X110842380Y-97304761D01*
X110890000Y-97257142D01*
X110890000Y-97352380D01*
X125361904Y-90452380D02*
X125361904Y-91261904D01*
X125409523Y-91357142D01*
X125457142Y-91404761D01*
X125552380Y-91452380D01*
X125742857Y-91452380D01*
X125838095Y-91404761D01*
X125885714Y-91357142D01*
X125933333Y-91261904D01*
X125933333Y-90452380D01*
X126361904Y-91404761D02*
X126504761Y-91452380D01*
X126742857Y-91452380D01*
X126838095Y-91404761D01*
X126885714Y-91357142D01*
X126933333Y-91261904D01*
X126933333Y-91166666D01*
X126885714Y-91071428D01*
X126838095Y-91023809D01*
X126742857Y-90976190D01*
X126552380Y-90928571D01*
X126457142Y-90880952D01*
X126409523Y-90833333D01*
X126361904Y-90738095D01*
X126361904Y-90642857D01*
X126409523Y-90547619D01*
X126457142Y-90500000D01*
X126552380Y-90452380D01*
X126790476Y-90452380D01*
X126933333Y-90500000D01*
X127933333Y-91452380D02*
X127600000Y-90976190D01*
X127361904Y-91452380D02*
X127361904Y-90452380D01*
X127742857Y-90452380D01*
X127838095Y-90500000D01*
X127885714Y-90547619D01*
X127933333Y-90642857D01*
X127933333Y-90785714D01*
X127885714Y-90880952D01*
X127838095Y-90928571D01*
X127742857Y-90976190D01*
X127361904Y-90976190D01*
X128885714Y-91452380D02*
X128314285Y-91452380D01*
X128600000Y-91452380D02*
X128600000Y-90452380D01*
X128504761Y-90595238D01*
X128409523Y-90690476D01*
X128314285Y-90738095D01*
X143619047Y-83071428D02*
X144380952Y-83071428D01*
X144000000Y-83452380D02*
X144000000Y-82690476D01*
X143619047Y-115221428D02*
X144380952Y-115221428D01*
X134052380Y-87352380D02*
X133719047Y-86876190D01*
X133480952Y-87352380D02*
X133480952Y-86352380D01*
X133861904Y-86352380D01*
X133957142Y-86400000D01*
X134004761Y-86447619D01*
X134052380Y-86542857D01*
X134052380Y-86685714D01*
X134004761Y-86780952D01*
X133957142Y-86828571D01*
X133861904Y-86876190D01*
X133480952Y-86876190D01*
X134433333Y-87304761D02*
X134576190Y-87352380D01*
X134814285Y-87352380D01*
X134909523Y-87304761D01*
X134957142Y-87257142D01*
X135004761Y-87161904D01*
X135004761Y-87066666D01*
X134957142Y-86971428D01*
X134909523Y-86923809D01*
X134814285Y-86876190D01*
X134623809Y-86828571D01*
X134528571Y-86780952D01*
X134480952Y-86733333D01*
X134433333Y-86638095D01*
X134433333Y-86542857D01*
X134480952Y-86447619D01*
X134528571Y-86400000D01*
X134623809Y-86352380D01*
X134861904Y-86352380D01*
X135004761Y-86400000D01*
X135290476Y-86352380D02*
X135861904Y-86352380D01*
X135576190Y-87352380D02*
X135576190Y-86352380D01*
D11*
X118879285Y-109610857D02*
X118965000Y-109639428D01*
X119107857Y-109639428D01*
X119165000Y-109610857D01*
X119193571Y-109582285D01*
X119222142Y-109525142D01*
X119222142Y-109468000D01*
X119193571Y-109410857D01*
X119165000Y-109382285D01*
X119107857Y-109353714D01*
X118993571Y-109325142D01*
X118936428Y-109296571D01*
X118907857Y-109268000D01*
X118879285Y-109210857D01*
X118879285Y-109153714D01*
X118907857Y-109096571D01*
X118936428Y-109068000D01*
X118993571Y-109039428D01*
X119136428Y-109039428D01*
X119222142Y-109068000D01*
X119393571Y-109039428D02*
X119736428Y-109039428D01*
X119565000Y-109639428D02*
X119565000Y-109039428D01*
X119936428Y-109639428D02*
X119936428Y-109039428D01*
X120136428Y-109468000D01*
X120336428Y-109039428D01*
X120336428Y-109639428D01*
X120565000Y-109039428D02*
X120936428Y-109039428D01*
X120736428Y-109268000D01*
X120822142Y-109268000D01*
X120879285Y-109296571D01*
X120907857Y-109325142D01*
X120936428Y-109382285D01*
X120936428Y-109525142D01*
X120907857Y-109582285D01*
X120879285Y-109610857D01*
X120822142Y-109639428D01*
X120650714Y-109639428D01*
X120593571Y-109610857D01*
X120565000Y-109582285D01*
X121165000Y-109096571D02*
X121193571Y-109068000D01*
X121250714Y-109039428D01*
X121393571Y-109039428D01*
X121450714Y-109068000D01*
X121479285Y-109096571D01*
X121507857Y-109153714D01*
X121507857Y-109210857D01*
X121479285Y-109296571D01*
X121136428Y-109639428D01*
X121507857Y-109639428D01*
X122050714Y-109639428D02*
X121765000Y-109639428D01*
X121765000Y-109039428D01*
X122365000Y-109039428D02*
X122422142Y-109039428D01*
X122479285Y-109068000D01*
X122507857Y-109096571D01*
X122536428Y-109153714D01*
X122565000Y-109268000D01*
X122565000Y-109410857D01*
X122536428Y-109525142D01*
X122507857Y-109582285D01*
X122479285Y-109610857D01*
X122422142Y-109639428D01*
X122365000Y-109639428D01*
X122307857Y-109610857D01*
X122279285Y-109582285D01*
X122250714Y-109525142D01*
X122222142Y-109410857D01*
X122222142Y-109268000D01*
X122250714Y-109153714D01*
X122279285Y-109096571D01*
X122307857Y-109068000D01*
X122365000Y-109039428D01*
X122822142Y-109410857D02*
X123279285Y-109410857D01*
X123565000Y-109325142D02*
X123765000Y-109325142D01*
X123850714Y-109639428D02*
X123565000Y-109639428D01*
X123565000Y-109039428D01*
X123850714Y-109039428D01*
X124079285Y-109610857D02*
X124165000Y-109639428D01*
X124307857Y-109639428D01*
X124365000Y-109610857D01*
X124393571Y-109582285D01*
X124422142Y-109525142D01*
X124422142Y-109468000D01*
X124393571Y-109410857D01*
X124365000Y-109382285D01*
X124307857Y-109353714D01*
X124193571Y-109325142D01*
X124136428Y-109296571D01*
X124107857Y-109268000D01*
X124079285Y-109210857D01*
X124079285Y-109153714D01*
X124107857Y-109096571D01*
X124136428Y-109068000D01*
X124193571Y-109039428D01*
X124336428Y-109039428D01*
X124422142Y-109068000D01*
X124679285Y-109639428D02*
X124679285Y-109039428D01*
X124907857Y-109039428D01*
X124965000Y-109068000D01*
X124993571Y-109096571D01*
X125022142Y-109153714D01*
X125022142Y-109239428D01*
X124993571Y-109296571D01*
X124965000Y-109325142D01*
X124907857Y-109353714D01*
X124679285Y-109353714D01*
X125222142Y-109039428D02*
X125593571Y-109039428D01*
X125393571Y-109268000D01*
X125479285Y-109268000D01*
X125536428Y-109296571D01*
X125565000Y-109325142D01*
X125593571Y-109382285D01*
X125593571Y-109525142D01*
X125565000Y-109582285D01*
X125536428Y-109610857D01*
X125479285Y-109639428D01*
X125307857Y-109639428D01*
X125250714Y-109610857D01*
X125222142Y-109582285D01*
X125822142Y-109096571D02*
X125850714Y-109068000D01*
X125907857Y-109039428D01*
X126050714Y-109039428D01*
X126107857Y-109068000D01*
X126136428Y-109096571D01*
X126165000Y-109153714D01*
X126165000Y-109210857D01*
X126136428Y-109296571D01*
X125793571Y-109639428D01*
X126165000Y-109639428D01*
X126422142Y-109410857D02*
X126879285Y-109410857D01*
X127365000Y-109325142D02*
X127450714Y-109353714D01*
X127479285Y-109382285D01*
X127507857Y-109439428D01*
X127507857Y-109525142D01*
X127479285Y-109582285D01*
X127450714Y-109610857D01*
X127393571Y-109639428D01*
X127165000Y-109639428D01*
X127165000Y-109039428D01*
X127365000Y-109039428D01*
X127422142Y-109068000D01*
X127450714Y-109096571D01*
X127479285Y-109153714D01*
X127479285Y-109210857D01*
X127450714Y-109268000D01*
X127422142Y-109296571D01*
X127365000Y-109325142D01*
X127165000Y-109325142D01*
X127765000Y-109639428D02*
X127765000Y-109239428D01*
X127765000Y-109353714D02*
X127793571Y-109296571D01*
X127822142Y-109268000D01*
X127879285Y-109239428D01*
X127936428Y-109239428D01*
X128365000Y-109610857D02*
X128307857Y-109639428D01*
X128193571Y-109639428D01*
X128136428Y-109610857D01*
X128107857Y-109553714D01*
X128107857Y-109325142D01*
X128136428Y-109268000D01*
X128193571Y-109239428D01*
X128307857Y-109239428D01*
X128365000Y-109268000D01*
X128393571Y-109325142D01*
X128393571Y-109382285D01*
X128107857Y-109439428D01*
X128907857Y-109639428D02*
X128907857Y-109325142D01*
X128879285Y-109268000D01*
X128822142Y-109239428D01*
X128707857Y-109239428D01*
X128650714Y-109268000D01*
X128907857Y-109610857D02*
X128850714Y-109639428D01*
X128707857Y-109639428D01*
X128650714Y-109610857D01*
X128622142Y-109553714D01*
X128622142Y-109496571D01*
X128650714Y-109439428D01*
X128707857Y-109410857D01*
X128850714Y-109410857D01*
X128907857Y-109382285D01*
X129193571Y-109639428D02*
X129193571Y-109039428D01*
X129250714Y-109410857D02*
X129422142Y-109639428D01*
X129422142Y-109239428D02*
X129193571Y-109468000D01*
X129765000Y-109639428D02*
X129707857Y-109610857D01*
X129679285Y-109582285D01*
X129650714Y-109525142D01*
X129650714Y-109353714D01*
X129679285Y-109296571D01*
X129707857Y-109268000D01*
X129765000Y-109239428D01*
X129850714Y-109239428D01*
X129907857Y-109268000D01*
X129936428Y-109296571D01*
X129965000Y-109353714D01*
X129965000Y-109525142D01*
X129936428Y-109582285D01*
X129907857Y-109610857D01*
X129850714Y-109639428D01*
X129765000Y-109639428D01*
X130479285Y-109239428D02*
X130479285Y-109639428D01*
X130222142Y-109239428D02*
X130222142Y-109553714D01*
X130250714Y-109610857D01*
X130307857Y-109639428D01*
X130393571Y-109639428D01*
X130450714Y-109610857D01*
X130479285Y-109582285D01*
X130679285Y-109239428D02*
X130907857Y-109239428D01*
X130765000Y-109039428D02*
X130765000Y-109553714D01*
X130793571Y-109610857D01*
X130850714Y-109639428D01*
X130907857Y-109639428D01*
X131107857Y-109410857D02*
X131565000Y-109410857D01*
X132050714Y-109325142D02*
X132136428Y-109353714D01*
X132165000Y-109382285D01*
X132193571Y-109439428D01*
X132193571Y-109525142D01*
X132165000Y-109582285D01*
X132136428Y-109610857D01*
X132079285Y-109639428D01*
X131850714Y-109639428D01*
X131850714Y-109039428D01*
X132050714Y-109039428D01*
X132107857Y-109068000D01*
X132136428Y-109096571D01*
X132165000Y-109153714D01*
X132165000Y-109210857D01*
X132136428Y-109268000D01*
X132107857Y-109296571D01*
X132050714Y-109325142D01*
X131850714Y-109325142D01*
X132536428Y-109639428D02*
X132479285Y-109610857D01*
X132450714Y-109582285D01*
X132422142Y-109525142D01*
X132422142Y-109353714D01*
X132450714Y-109296571D01*
X132479285Y-109268000D01*
X132536428Y-109239428D01*
X132622142Y-109239428D01*
X132679285Y-109268000D01*
X132707857Y-109296571D01*
X132736428Y-109353714D01*
X132736428Y-109525142D01*
X132707857Y-109582285D01*
X132679285Y-109610857D01*
X132622142Y-109639428D01*
X132536428Y-109639428D01*
X133250714Y-109639428D02*
X133250714Y-109325142D01*
X133222142Y-109268000D01*
X133165000Y-109239428D01*
X133050714Y-109239428D01*
X132993571Y-109268000D01*
X133250714Y-109610857D02*
X133193571Y-109639428D01*
X133050714Y-109639428D01*
X132993571Y-109610857D01*
X132965000Y-109553714D01*
X132965000Y-109496571D01*
X132993571Y-109439428D01*
X133050714Y-109410857D01*
X133193571Y-109410857D01*
X133250714Y-109382285D01*
X133536428Y-109639428D02*
X133536428Y-109239428D01*
X133536428Y-109353714D02*
X133565000Y-109296571D01*
X133593571Y-109268000D01*
X133650714Y-109239428D01*
X133707857Y-109239428D01*
X134165000Y-109639428D02*
X134165000Y-109039428D01*
X134165000Y-109610857D02*
X134107857Y-109639428D01*
X133993571Y-109639428D01*
X133936428Y-109610857D01*
X133907857Y-109582285D01*
X133879285Y-109525142D01*
X133879285Y-109353714D01*
X133907857Y-109296571D01*
X133936428Y-109268000D01*
X133993571Y-109239428D01*
X134107857Y-109239428D01*
X134165000Y-109268000D01*
X118907857Y-110291142D02*
X119107857Y-110291142D01*
X119193571Y-110605428D02*
X118907857Y-110605428D01*
X118907857Y-110005428D01*
X119193571Y-110005428D01*
X119536428Y-110605428D02*
X119479285Y-110576857D01*
X119450714Y-110519714D01*
X119450714Y-110005428D01*
X119993571Y-110576857D02*
X119936428Y-110605428D01*
X119822142Y-110605428D01*
X119765000Y-110576857D01*
X119736428Y-110519714D01*
X119736428Y-110291142D01*
X119765000Y-110234000D01*
X119822142Y-110205428D01*
X119936428Y-110205428D01*
X119993571Y-110234000D01*
X120022142Y-110291142D01*
X120022142Y-110348285D01*
X119736428Y-110405428D01*
X120536428Y-110576857D02*
X120479285Y-110605428D01*
X120365000Y-110605428D01*
X120307857Y-110576857D01*
X120279285Y-110548285D01*
X120250714Y-110491142D01*
X120250714Y-110319714D01*
X120279285Y-110262571D01*
X120307857Y-110234000D01*
X120365000Y-110205428D01*
X120479285Y-110205428D01*
X120536428Y-110234000D01*
X120707857Y-110205428D02*
X120936428Y-110205428D01*
X120793571Y-110005428D02*
X120793571Y-110519714D01*
X120822142Y-110576857D01*
X120879285Y-110605428D01*
X120936428Y-110605428D01*
X121136428Y-110605428D02*
X121136428Y-110205428D01*
X121136428Y-110319714D02*
X121165000Y-110262571D01*
X121193571Y-110234000D01*
X121250714Y-110205428D01*
X121307857Y-110205428D01*
X121593571Y-110605428D02*
X121536428Y-110576857D01*
X121507857Y-110548285D01*
X121479285Y-110491142D01*
X121479285Y-110319714D01*
X121507857Y-110262571D01*
X121536428Y-110234000D01*
X121593571Y-110205428D01*
X121679285Y-110205428D01*
X121736428Y-110234000D01*
X121765000Y-110262571D01*
X121793571Y-110319714D01*
X121793571Y-110491142D01*
X121765000Y-110548285D01*
X121736428Y-110576857D01*
X121679285Y-110605428D01*
X121593571Y-110605428D01*
X122479285Y-110576857D02*
X122565000Y-110605428D01*
X122707857Y-110605428D01*
X122765000Y-110576857D01*
X122793571Y-110548285D01*
X122822142Y-110491142D01*
X122822142Y-110434000D01*
X122793571Y-110376857D01*
X122765000Y-110348285D01*
X122707857Y-110319714D01*
X122593571Y-110291142D01*
X122536428Y-110262571D01*
X122507857Y-110234000D01*
X122479285Y-110176857D01*
X122479285Y-110119714D01*
X122507857Y-110062571D01*
X122536428Y-110034000D01*
X122593571Y-110005428D01*
X122736428Y-110005428D01*
X122822142Y-110034000D01*
X123336428Y-110576857D02*
X123279285Y-110605428D01*
X123165000Y-110605428D01*
X123107857Y-110576857D01*
X123079285Y-110548285D01*
X123050714Y-110491142D01*
X123050714Y-110319714D01*
X123079285Y-110262571D01*
X123107857Y-110234000D01*
X123165000Y-110205428D01*
X123279285Y-110205428D01*
X123336428Y-110234000D01*
X123593571Y-110605428D02*
X123593571Y-110205428D01*
X123593571Y-110005428D02*
X123565000Y-110034000D01*
X123593571Y-110062571D01*
X123622142Y-110034000D01*
X123593571Y-110005428D01*
X123593571Y-110062571D01*
X124107857Y-110576857D02*
X124050714Y-110605428D01*
X123936428Y-110605428D01*
X123879285Y-110576857D01*
X123850714Y-110519714D01*
X123850714Y-110291142D01*
X123879285Y-110234000D01*
X123936428Y-110205428D01*
X124050714Y-110205428D01*
X124107857Y-110234000D01*
X124136428Y-110291142D01*
X124136428Y-110348285D01*
X123850714Y-110405428D01*
X124393571Y-110205428D02*
X124393571Y-110605428D01*
X124393571Y-110262571D02*
X124422142Y-110234000D01*
X124479285Y-110205428D01*
X124565000Y-110205428D01*
X124622142Y-110234000D01*
X124650714Y-110291142D01*
X124650714Y-110605428D01*
X124850714Y-110205428D02*
X125079285Y-110205428D01*
X124936428Y-110005428D02*
X124936428Y-110519714D01*
X124965000Y-110576857D01*
X125022142Y-110605428D01*
X125079285Y-110605428D01*
X125279285Y-110605428D02*
X125279285Y-110205428D01*
X125279285Y-110005428D02*
X125250714Y-110034000D01*
X125279285Y-110062571D01*
X125307857Y-110034000D01*
X125279285Y-110005428D01*
X125279285Y-110062571D01*
X125479285Y-110205428D02*
X125707857Y-110205428D01*
X125565000Y-110605428D02*
X125565000Y-110091142D01*
X125593571Y-110034000D01*
X125650714Y-110005428D01*
X125707857Y-110005428D01*
X125907857Y-110605428D02*
X125907857Y-110205428D01*
X125907857Y-110005428D02*
X125879285Y-110034000D01*
X125907857Y-110062571D01*
X125936428Y-110034000D01*
X125907857Y-110005428D01*
X125907857Y-110062571D01*
X126450714Y-110576857D02*
X126393571Y-110605428D01*
X126279285Y-110605428D01*
X126222142Y-110576857D01*
X126193571Y-110548285D01*
X126165000Y-110491142D01*
X126165000Y-110319714D01*
X126193571Y-110262571D01*
X126222142Y-110234000D01*
X126279285Y-110205428D01*
X126393571Y-110205428D01*
X126450714Y-110234000D01*
X127507857Y-110548285D02*
X127479285Y-110576857D01*
X127393571Y-110605428D01*
X127336428Y-110605428D01*
X127250714Y-110576857D01*
X127193571Y-110519714D01*
X127165000Y-110462571D01*
X127136428Y-110348285D01*
X127136428Y-110262571D01*
X127165000Y-110148285D01*
X127193571Y-110091142D01*
X127250714Y-110034000D01*
X127336428Y-110005428D01*
X127393571Y-110005428D01*
X127479285Y-110034000D01*
X127507857Y-110062571D01*
X127850714Y-110605428D02*
X127793571Y-110576857D01*
X127765000Y-110519714D01*
X127765000Y-110005428D01*
X128336428Y-110205428D02*
X128336428Y-110605428D01*
X128079285Y-110205428D02*
X128079285Y-110519714D01*
X128107857Y-110576857D01*
X128165000Y-110605428D01*
X128250714Y-110605428D01*
X128307857Y-110576857D01*
X128336428Y-110548285D01*
X128622142Y-110605428D02*
X128622142Y-110005428D01*
X128622142Y-110234000D02*
X128679285Y-110205428D01*
X128793571Y-110205428D01*
X128850714Y-110234000D01*
X128879285Y-110262571D01*
X128907857Y-110319714D01*
X128907857Y-110491142D01*
X128879285Y-110548285D01*
X128850714Y-110576857D01*
X128793571Y-110605428D01*
X128679285Y-110605428D01*
X128622142Y-110576857D01*
X119079285Y-112766000D02*
X119050714Y-112737428D01*
X118993571Y-112651714D01*
X118965000Y-112594571D01*
X118936428Y-112508857D01*
X118907857Y-112366000D01*
X118907857Y-112251714D01*
X118936428Y-112108857D01*
X118965000Y-112023142D01*
X118993571Y-111966000D01*
X119050714Y-111880285D01*
X119079285Y-111851714D01*
X119650714Y-112480285D02*
X119622142Y-112508857D01*
X119536428Y-112537428D01*
X119479285Y-112537428D01*
X119393571Y-112508857D01*
X119336428Y-112451714D01*
X119307857Y-112394571D01*
X119279285Y-112280285D01*
X119279285Y-112194571D01*
X119307857Y-112080285D01*
X119336428Y-112023142D01*
X119393571Y-111966000D01*
X119479285Y-111937428D01*
X119536428Y-111937428D01*
X119622142Y-111966000D01*
X119650714Y-111994571D01*
X119850714Y-112766000D02*
X119879285Y-112737428D01*
X119936428Y-112651714D01*
X119965000Y-112594571D01*
X119993571Y-112508857D01*
X120022142Y-112366000D01*
X120022142Y-112251714D01*
X119993571Y-112108857D01*
X119965000Y-112023142D01*
X119936428Y-111966000D01*
X119879285Y-111880285D01*
X119850714Y-111851714D01*
X120736428Y-111994571D02*
X120765000Y-111966000D01*
X120822142Y-111937428D01*
X120965000Y-111937428D01*
X121022142Y-111966000D01*
X121050714Y-111994571D01*
X121079285Y-112051714D01*
X121079285Y-112108857D01*
X121050714Y-112194571D01*
X120707857Y-112537428D01*
X121079285Y-112537428D01*
X121450714Y-111937428D02*
X121507857Y-111937428D01*
X121565000Y-111966000D01*
X121593571Y-111994571D01*
X121622142Y-112051714D01*
X121650714Y-112166000D01*
X121650714Y-112308857D01*
X121622142Y-112423142D01*
X121593571Y-112480285D01*
X121565000Y-112508857D01*
X121507857Y-112537428D01*
X121450714Y-112537428D01*
X121393571Y-112508857D01*
X121365000Y-112480285D01*
X121336428Y-112423142D01*
X121307857Y-112308857D01*
X121307857Y-112166000D01*
X121336428Y-112051714D01*
X121365000Y-111994571D01*
X121393571Y-111966000D01*
X121450714Y-111937428D01*
X121879285Y-111994571D02*
X121907857Y-111966000D01*
X121965000Y-111937428D01*
X122107857Y-111937428D01*
X122165000Y-111966000D01*
X122193571Y-111994571D01*
X122222142Y-112051714D01*
X122222142Y-112108857D01*
X122193571Y-112194571D01*
X121850714Y-112537428D01*
X122222142Y-112537428D01*
X122450714Y-111994571D02*
X122479285Y-111966000D01*
X122536428Y-111937428D01*
X122679285Y-111937428D01*
X122736428Y-111966000D01*
X122765000Y-111994571D01*
X122793571Y-112051714D01*
X122793571Y-112108857D01*
X122765000Y-112194571D01*
X122422142Y-112537428D01*
X122793571Y-112537428D01*
X123507857Y-112537428D02*
X123507857Y-111937428D01*
X123707857Y-112366000D01*
X123907857Y-111937428D01*
X123907857Y-112537428D01*
X124279285Y-112537428D02*
X124222142Y-112508857D01*
X124193571Y-112480285D01*
X124165000Y-112423142D01*
X124165000Y-112251714D01*
X124193571Y-112194571D01*
X124222142Y-112166000D01*
X124279285Y-112137428D01*
X124365000Y-112137428D01*
X124422142Y-112166000D01*
X124450714Y-112194571D01*
X124479285Y-112251714D01*
X124479285Y-112423142D01*
X124450714Y-112480285D01*
X124422142Y-112508857D01*
X124365000Y-112537428D01*
X124279285Y-112537428D01*
X124736428Y-112537428D02*
X124736428Y-111937428D01*
X124993571Y-112537428D02*
X124993571Y-112223142D01*
X124965000Y-112166000D01*
X124907857Y-112137428D01*
X124822142Y-112137428D01*
X124765000Y-112166000D01*
X124736428Y-112194571D01*
X125536428Y-112537428D02*
X125536428Y-112223142D01*
X125507857Y-112166000D01*
X125450714Y-112137428D01*
X125336428Y-112137428D01*
X125279285Y-112166000D01*
X125536428Y-112508857D02*
X125479285Y-112537428D01*
X125336428Y-112537428D01*
X125279285Y-112508857D01*
X125250714Y-112451714D01*
X125250714Y-112394571D01*
X125279285Y-112337428D01*
X125336428Y-112308857D01*
X125479285Y-112308857D01*
X125536428Y-112280285D01*
X125822142Y-112537428D02*
X125822142Y-112137428D01*
X125822142Y-112194571D02*
X125850714Y-112166000D01*
X125907857Y-112137428D01*
X125993571Y-112137428D01*
X126050714Y-112166000D01*
X126079285Y-112223142D01*
X126079285Y-112537428D01*
X126079285Y-112223142D02*
X126107857Y-112166000D01*
X126165000Y-112137428D01*
X126250714Y-112137428D01*
X126307857Y-112166000D01*
X126336428Y-112223142D01*
X126336428Y-112537428D01*
X126850714Y-112508857D02*
X126793571Y-112537428D01*
X126679285Y-112537428D01*
X126622142Y-112508857D01*
X126593571Y-112451714D01*
X126593571Y-112223142D01*
X126622142Y-112166000D01*
X126679285Y-112137428D01*
X126793571Y-112137428D01*
X126850714Y-112166000D01*
X126879285Y-112223142D01*
X126879285Y-112280285D01*
X126593571Y-112337428D01*
X127393571Y-112537428D02*
X127393571Y-111937428D01*
X127393571Y-112508857D02*
X127336428Y-112537428D01*
X127222142Y-112537428D01*
X127165000Y-112508857D01*
X127136428Y-112480285D01*
X127107857Y-112423142D01*
X127107857Y-112251714D01*
X127136428Y-112194571D01*
X127165000Y-112166000D01*
X127222142Y-112137428D01*
X127336428Y-112137428D01*
X127393571Y-112166000D01*
X128250714Y-112251714D02*
X128250714Y-112537428D01*
X128050714Y-111937428D02*
X128250714Y-112251714D01*
X128450714Y-111937428D01*
X128907857Y-112537428D02*
X128907857Y-112223142D01*
X128879285Y-112166000D01*
X128822142Y-112137428D01*
X128707857Y-112137428D01*
X128650714Y-112166000D01*
X128907857Y-112508857D02*
X128850714Y-112537428D01*
X128707857Y-112537428D01*
X128650714Y-112508857D01*
X128622142Y-112451714D01*
X128622142Y-112394571D01*
X128650714Y-112337428D01*
X128707857Y-112308857D01*
X128850714Y-112308857D01*
X128907857Y-112280285D01*
X129193571Y-112137428D02*
X129193571Y-112537428D01*
X129193571Y-112194571D02*
X129222142Y-112166000D01*
X129279285Y-112137428D01*
X129365000Y-112137428D01*
X129422142Y-112166000D01*
X129450714Y-112223142D01*
X129450714Y-112537428D01*
X129736428Y-112537428D02*
X129736428Y-112137428D01*
X129736428Y-111937428D02*
X129707857Y-111966000D01*
X129736428Y-111994571D01*
X129765000Y-111966000D01*
X129736428Y-111937428D01*
X129736428Y-111994571D01*
X129993571Y-112508857D02*
X130050714Y-112537428D01*
X130165000Y-112537428D01*
X130222142Y-112508857D01*
X130250714Y-112451714D01*
X130250714Y-112423142D01*
X130222142Y-112366000D01*
X130165000Y-112337428D01*
X130079285Y-112337428D01*
X130022142Y-112308857D01*
X129993571Y-112251714D01*
X129993571Y-112223142D01*
X130022142Y-112166000D01*
X130079285Y-112137428D01*
X130165000Y-112137428D01*
X130222142Y-112166000D01*
X130965000Y-112537428D02*
X130965000Y-111937428D01*
X130965000Y-112223142D02*
X131307857Y-112223142D01*
X131307857Y-112537428D02*
X131307857Y-111937428D01*
X131593571Y-112537428D02*
X131593571Y-112137428D01*
X131593571Y-111937428D02*
X131565000Y-111966000D01*
X131593571Y-111994571D01*
X131622142Y-111966000D01*
X131593571Y-111937428D01*
X131593571Y-111994571D01*
X131965000Y-112537428D02*
X131907857Y-112508857D01*
X131879285Y-112480285D01*
X131850714Y-112423142D01*
X131850714Y-112251714D01*
X131879285Y-112194571D01*
X131907857Y-112166000D01*
X131965000Y-112137428D01*
X132050714Y-112137428D01*
X132107857Y-112166000D01*
X132136428Y-112194571D01*
X132165000Y-112251714D01*
X132165000Y-112423142D01*
X132136428Y-112480285D01*
X132107857Y-112508857D01*
X132050714Y-112537428D01*
X131965000Y-112537428D01*
X132679285Y-112137428D02*
X132679285Y-112537428D01*
X132422142Y-112137428D02*
X132422142Y-112451714D01*
X132450714Y-112508857D01*
X132507857Y-112537428D01*
X132593571Y-112537428D01*
X132650714Y-112508857D01*
X132679285Y-112480285D01*
X118850714Y-113103428D02*
X118965000Y-113503428D01*
X119079285Y-113217714D01*
X119193571Y-113503428D01*
X119307857Y-113103428D01*
X119479285Y-113103428D02*
X119593571Y-113503428D01*
X119707857Y-113217714D01*
X119822142Y-113503428D01*
X119936428Y-113103428D01*
X120107857Y-113103428D02*
X120222142Y-113503428D01*
X120336428Y-113217714D01*
X120450714Y-113503428D01*
X120565000Y-113103428D01*
X120793571Y-113446285D02*
X120822142Y-113474857D01*
X120793571Y-113503428D01*
X120765000Y-113474857D01*
X120793571Y-113446285D01*
X120793571Y-113503428D01*
X121079285Y-113503428D02*
X121079285Y-113103428D01*
X121079285Y-113160571D02*
X121107857Y-113132000D01*
X121165000Y-113103428D01*
X121250714Y-113103428D01*
X121307857Y-113132000D01*
X121336428Y-113189142D01*
X121336428Y-113503428D01*
X121336428Y-113189142D02*
X121365000Y-113132000D01*
X121422142Y-113103428D01*
X121507857Y-113103428D01*
X121565000Y-113132000D01*
X121593571Y-113189142D01*
X121593571Y-113503428D01*
X122107857Y-113474857D02*
X122050714Y-113503428D01*
X121936428Y-113503428D01*
X121879285Y-113474857D01*
X121850714Y-113417714D01*
X121850714Y-113189142D01*
X121879285Y-113132000D01*
X121936428Y-113103428D01*
X122050714Y-113103428D01*
X122107857Y-113132000D01*
X122136428Y-113189142D01*
X122136428Y-113246285D01*
X121850714Y-113303428D01*
X122650714Y-113503428D02*
X122650714Y-112903428D01*
X122650714Y-113474857D02*
X122593571Y-113503428D01*
X122479285Y-113503428D01*
X122422142Y-113474857D01*
X122393571Y-113446285D01*
X122365000Y-113389142D01*
X122365000Y-113217714D01*
X122393571Y-113160571D01*
X122422142Y-113132000D01*
X122479285Y-113103428D01*
X122593571Y-113103428D01*
X122650714Y-113132000D01*
X122879285Y-113103428D02*
X123022142Y-113503428D01*
X123165000Y-113103428D02*
X123022142Y-113503428D01*
X122965000Y-113646285D01*
X122936428Y-113674857D01*
X122879285Y-113703428D01*
X123650714Y-113503428D02*
X123650714Y-113189142D01*
X123622142Y-113132000D01*
X123565000Y-113103428D01*
X123450714Y-113103428D01*
X123393571Y-113132000D01*
X123650714Y-113474857D02*
X123593571Y-113503428D01*
X123450714Y-113503428D01*
X123393571Y-113474857D01*
X123365000Y-113417714D01*
X123365000Y-113360571D01*
X123393571Y-113303428D01*
X123450714Y-113274857D01*
X123593571Y-113274857D01*
X123650714Y-113246285D01*
X123936428Y-113103428D02*
X123936428Y-113503428D01*
X123936428Y-113160571D02*
X123965000Y-113132000D01*
X124022142Y-113103428D01*
X124107857Y-113103428D01*
X124165000Y-113132000D01*
X124193571Y-113189142D01*
X124193571Y-113503428D01*
X124479285Y-113503428D02*
X124479285Y-113103428D01*
X124479285Y-112903428D02*
X124450714Y-112932000D01*
X124479285Y-112960571D01*
X124507857Y-112932000D01*
X124479285Y-112903428D01*
X124479285Y-112960571D01*
X124736428Y-113474857D02*
X124793571Y-113503428D01*
X124907857Y-113503428D01*
X124965000Y-113474857D01*
X124993571Y-113417714D01*
X124993571Y-113389142D01*
X124965000Y-113332000D01*
X124907857Y-113303428D01*
X124822142Y-113303428D01*
X124765000Y-113274857D01*
X124736428Y-113217714D01*
X124736428Y-113189142D01*
X124765000Y-113132000D01*
X124822142Y-113103428D01*
X124907857Y-113103428D01*
X124965000Y-113132000D01*
X125107857Y-113560571D02*
X125565000Y-113560571D01*
X125707857Y-113503428D02*
X125707857Y-112903428D01*
X125965000Y-113503428D02*
X125965000Y-113189142D01*
X125936428Y-113132000D01*
X125879285Y-113103428D01*
X125793571Y-113103428D01*
X125736428Y-113132000D01*
X125707857Y-113160571D01*
X126250714Y-113503428D02*
X126250714Y-113103428D01*
X126250714Y-112903428D02*
X126222142Y-112932000D01*
X126250714Y-112960571D01*
X126279285Y-112932000D01*
X126250714Y-112903428D01*
X126250714Y-112960571D01*
X126622142Y-113503428D02*
X126565000Y-113474857D01*
X126536428Y-113446285D01*
X126507857Y-113389142D01*
X126507857Y-113217714D01*
X126536428Y-113160571D01*
X126565000Y-113132000D01*
X126622142Y-113103428D01*
X126707857Y-113103428D01*
X126765000Y-113132000D01*
X126793571Y-113160571D01*
X126822142Y-113217714D01*
X126822142Y-113389142D01*
X126793571Y-113446285D01*
X126765000Y-113474857D01*
X126707857Y-113503428D01*
X126622142Y-113503428D01*
X127336428Y-113103428D02*
X127336428Y-113503428D01*
X127079285Y-113103428D02*
X127079285Y-113417714D01*
X127107857Y-113474857D01*
X127165000Y-113503428D01*
X127250714Y-113503428D01*
X127307857Y-113474857D01*
X127336428Y-113446285D01*
X127622142Y-113446285D02*
X127650714Y-113474857D01*
X127622142Y-113503428D01*
X127593571Y-113474857D01*
X127622142Y-113446285D01*
X127622142Y-113503428D01*
X127907857Y-113103428D02*
X127907857Y-113503428D01*
X127907857Y-113160571D02*
X127936428Y-113132000D01*
X127993571Y-113103428D01*
X128079285Y-113103428D01*
X128136428Y-113132000D01*
X128165000Y-113189142D01*
X128165000Y-113503428D01*
X128679285Y-113474857D02*
X128622142Y-113503428D01*
X128507857Y-113503428D01*
X128450714Y-113474857D01*
X128422142Y-113417714D01*
X128422142Y-113189142D01*
X128450714Y-113132000D01*
X128507857Y-113103428D01*
X128622142Y-113103428D01*
X128679285Y-113132000D01*
X128707857Y-113189142D01*
X128707857Y-113246285D01*
X128422142Y-113303428D01*
X128879285Y-113103428D02*
X129107857Y-113103428D01*
X128965000Y-112903428D02*
X128965000Y-113417714D01*
X128993571Y-113474857D01*
X129050714Y-113503428D01*
X129107857Y-113503428D01*
X129393571Y-113503428D02*
X129336428Y-113474857D01*
X129307857Y-113417714D01*
X129307857Y-112903428D01*
X129622142Y-113503428D02*
X129622142Y-113103428D01*
X129622142Y-112903428D02*
X129593571Y-112932000D01*
X129622142Y-112960571D01*
X129650714Y-112932000D01*
X129622142Y-112903428D01*
X129622142Y-112960571D01*
X129822142Y-113103428D02*
X130050714Y-113103428D01*
X129907857Y-113503428D02*
X129907857Y-112989142D01*
X129936428Y-112932000D01*
X129993571Y-112903428D01*
X130050714Y-112903428D01*
X130193571Y-113103428D02*
X130336428Y-113503428D01*
X130479285Y-113103428D02*
X130336428Y-113503428D01*
X130279285Y-113646285D01*
X130250714Y-113674857D01*
X130193571Y-113703428D01*
X130707857Y-113446285D02*
X130736428Y-113474857D01*
X130707857Y-113503428D01*
X130679285Y-113474857D01*
X130707857Y-113446285D01*
X130707857Y-113503428D01*
X131250714Y-113474857D02*
X131193571Y-113503428D01*
X131079285Y-113503428D01*
X131022142Y-113474857D01*
X130993571Y-113446285D01*
X130965000Y-113389142D01*
X130965000Y-113217714D01*
X130993571Y-113160571D01*
X131022142Y-113132000D01*
X131079285Y-113103428D01*
X131193571Y-113103428D01*
X131250714Y-113132000D01*
X131593571Y-113503428D02*
X131536428Y-113474857D01*
X131507857Y-113446285D01*
X131479285Y-113389142D01*
X131479285Y-113217714D01*
X131507857Y-113160571D01*
X131536428Y-113132000D01*
X131593571Y-113103428D01*
X131679285Y-113103428D01*
X131736428Y-113132000D01*
X131765000Y-113160571D01*
X131793571Y-113217714D01*
X131793571Y-113389142D01*
X131765000Y-113446285D01*
X131736428Y-113474857D01*
X131679285Y-113503428D01*
X131593571Y-113503428D01*
X132050714Y-113503428D02*
X132050714Y-113103428D01*
X132050714Y-113160571D02*
X132079285Y-113132000D01*
X132136428Y-113103428D01*
X132222142Y-113103428D01*
X132279285Y-113132000D01*
X132307857Y-113189142D01*
X132307857Y-113503428D01*
X132307857Y-113189142D02*
X132336428Y-113132000D01*
X132393571Y-113103428D01*
X132479285Y-113103428D01*
X132536428Y-113132000D01*
X132565000Y-113189142D01*
X132565000Y-113503428D01*
D10*
X130919047Y-115021428D02*
X131680952Y-115021428D01*
X138519047Y-83071428D02*
X139280952Y-83071428D01*
X147123809Y-119502380D02*
X147123809Y-118502380D01*
X147504761Y-118502380D01*
X147600000Y-118550000D01*
X147647619Y-118597619D01*
X147695238Y-118692857D01*
X147695238Y-118835714D01*
X147647619Y-118930952D01*
X147600000Y-118978571D01*
X147504761Y-119026190D01*
X147123809Y-119026190D01*
X148123809Y-119502380D02*
X148123809Y-118835714D01*
X148123809Y-119026190D02*
X148171428Y-118930952D01*
X148219047Y-118883333D01*
X148314285Y-118835714D01*
X148409523Y-118835714D01*
X148885714Y-119502380D02*
X148790476Y-119454761D01*
X148742857Y-119407142D01*
X148695238Y-119311904D01*
X148695238Y-119026190D01*
X148742857Y-118930952D01*
X148790476Y-118883333D01*
X148885714Y-118835714D01*
X149028571Y-118835714D01*
X149123809Y-118883333D01*
X149171428Y-118930952D01*
X149219047Y-119026190D01*
X149219047Y-119311904D01*
X149171428Y-119407142D01*
X149123809Y-119454761D01*
X149028571Y-119502380D01*
X148885714Y-119502380D01*
X150076190Y-118835714D02*
X150076190Y-119645238D01*
X150028571Y-119740476D01*
X149980952Y-119788095D01*
X149885714Y-119835714D01*
X149742857Y-119835714D01*
X149647619Y-119788095D01*
X150076190Y-119454761D02*
X149980952Y-119502380D01*
X149790476Y-119502380D01*
X149695238Y-119454761D01*
X149647619Y-119407142D01*
X149600000Y-119311904D01*
X149600000Y-119026190D01*
X149647619Y-118930952D01*
X149695238Y-118883333D01*
X149790476Y-118835714D01*
X149980952Y-118835714D01*
X150076190Y-118883333D01*
X120342857Y-119754761D02*
X120485714Y-119802380D01*
X120723809Y-119802380D01*
X120819047Y-119754761D01*
X120866666Y-119707142D01*
X120914285Y-119611904D01*
X120914285Y-119516666D01*
X120866666Y-119421428D01*
X120819047Y-119373809D01*
X120723809Y-119326190D01*
X120533333Y-119278571D01*
X120438095Y-119230952D01*
X120390476Y-119183333D01*
X120342857Y-119088095D01*
X120342857Y-118992857D01*
X120390476Y-118897619D01*
X120438095Y-118850000D01*
X120533333Y-118802380D01*
X120771428Y-118802380D01*
X120914285Y-118850000D01*
X121247619Y-118802380D02*
X121485714Y-119802380D01*
X121676190Y-119088095D01*
X121866666Y-119802380D01*
X122104761Y-118802380D01*
X122485714Y-119802380D02*
X122485714Y-118802380D01*
X122723809Y-118802380D01*
X122866666Y-118850000D01*
X122961904Y-118945238D01*
X123009523Y-119040476D01*
X123057142Y-119230952D01*
X123057142Y-119373809D01*
X123009523Y-119564285D01*
X122961904Y-119659523D01*
X122866666Y-119754761D01*
X122723809Y-119802380D01*
X122485714Y-119802380D01*
X144061904Y-111952380D02*
X144061904Y-112761904D01*
X144109523Y-112857142D01*
X144157142Y-112904761D01*
X144252380Y-112952380D01*
X144442857Y-112952380D01*
X144538095Y-112904761D01*
X144585714Y-112857142D01*
X144633333Y-112761904D01*
X144633333Y-111952380D01*
X145061904Y-112904761D02*
X145204761Y-112952380D01*
X145442857Y-112952380D01*
X145538095Y-112904761D01*
X145585714Y-112857142D01*
X145633333Y-112761904D01*
X145633333Y-112666666D01*
X145585714Y-112571428D01*
X145538095Y-112523809D01*
X145442857Y-112476190D01*
X145252380Y-112428571D01*
X145157142Y-112380952D01*
X145109523Y-112333333D01*
X145061904Y-112238095D01*
X145061904Y-112142857D01*
X145109523Y-112047619D01*
X145157142Y-112000000D01*
X145252380Y-111952380D01*
X145490476Y-111952380D01*
X145633333Y-112000000D01*
X146633333Y-112952380D02*
X146300000Y-112476190D01*
X146061904Y-112952380D02*
X146061904Y-111952380D01*
X146442857Y-111952380D01*
X146538095Y-112000000D01*
X146585714Y-112047619D01*
X146633333Y-112142857D01*
X146633333Y-112285714D01*
X146585714Y-112380952D01*
X146538095Y-112428571D01*
X146442857Y-112476190D01*
X146061904Y-112476190D01*
X147014285Y-112047619D02*
X147061904Y-112000000D01*
X147157142Y-111952380D01*
X147395238Y-111952380D01*
X147490476Y-112000000D01*
X147538095Y-112047619D01*
X147585714Y-112142857D01*
X147585714Y-112238095D01*
X147538095Y-112380952D01*
X146966666Y-112952380D01*
X147585714Y-112952380D01*
X141114285Y-83504761D02*
X141257142Y-83552380D01*
X141495238Y-83552380D01*
X141590476Y-83504761D01*
X141638095Y-83457142D01*
X141685714Y-83361904D01*
X141685714Y-83266666D01*
X141638095Y-83171428D01*
X141590476Y-83123809D01*
X141495238Y-83076190D01*
X141304761Y-83028571D01*
X141209523Y-82980952D01*
X141161904Y-82933333D01*
X141114285Y-82838095D01*
X141114285Y-82742857D01*
X141161904Y-82647619D01*
X141209523Y-82600000D01*
X141304761Y-82552380D01*
X141542857Y-82552380D01*
X141685714Y-82600000D01*
X125719047Y-83071428D02*
X126480952Y-83071428D01*
X136600000Y-110552380D02*
X136600000Y-109552380D01*
X137266666Y-109552380D02*
X137457142Y-109552380D01*
X137552380Y-109600000D01*
X137647619Y-109695238D01*
X137695238Y-109885714D01*
X137695238Y-110219047D01*
X137647619Y-110409523D01*
X137552380Y-110504761D01*
X137457142Y-110552380D01*
X137266666Y-110552380D01*
X137171428Y-110504761D01*
X137076190Y-110409523D01*
X137028571Y-110219047D01*
X137028571Y-109885714D01*
X137076190Y-109695238D01*
X137171428Y-109600000D01*
X137266666Y-109552380D01*
X138314285Y-109552380D02*
X138409523Y-109552380D01*
X138504761Y-109600000D01*
X138552380Y-109647619D01*
X138600000Y-109742857D01*
X138647619Y-109933333D01*
X138647619Y-110171428D01*
X138600000Y-110361904D01*
X138552380Y-110457142D01*
X138504761Y-110504761D01*
X138409523Y-110552380D01*
X138314285Y-110552380D01*
X138219047Y-110504761D01*
X138171428Y-110457142D01*
X138123809Y-110361904D01*
X138076190Y-110171428D01*
X138076190Y-109933333D01*
X138123809Y-109742857D01*
X138171428Y-109647619D01*
X138219047Y-109600000D01*
X138314285Y-109552380D01*
X147719047Y-110071428D02*
X148480952Y-110071428D01*
X148100000Y-110452380D02*
X148100000Y-109690476D01*
X157561904Y-86828571D02*
X157895238Y-86828571D01*
X158038095Y-87352380D02*
X157561904Y-87352380D01*
X157561904Y-86352380D01*
X158038095Y-86352380D01*
X158466666Y-87352380D02*
X158466666Y-86352380D01*
X159038095Y-87352380D01*
X159038095Y-86352380D01*
X159000000Y-87857142D02*
X159047619Y-87904761D01*
X159000000Y-87952380D01*
X158952380Y-87904761D01*
X159000000Y-87857142D01*
X159000000Y-87952380D01*
X114866666Y-108752380D02*
X114866666Y-107752380D01*
X115247619Y-107752380D01*
X115342857Y-107800000D01*
X115390476Y-107847619D01*
X115438095Y-107942857D01*
X115438095Y-108085714D01*
X115390476Y-108180952D01*
X115342857Y-108228571D01*
X115247619Y-108276190D01*
X114866666Y-108276190D01*
X115771428Y-107752380D02*
X116009523Y-108752380D01*
X116200000Y-108038095D01*
X116390476Y-108752380D01*
X116628571Y-107752380D01*
X117580952Y-108752380D02*
X117247619Y-108276190D01*
X117009523Y-108752380D02*
X117009523Y-107752380D01*
X117390476Y-107752380D01*
X117485714Y-107800000D01*
X117533333Y-107847619D01*
X117580952Y-107942857D01*
X117580952Y-108085714D01*
X117533333Y-108180952D01*
X117485714Y-108228571D01*
X117390476Y-108276190D01*
X117009523Y-108276190D01*
X118466666Y-101252380D02*
X118800000Y-102252380D01*
X119133333Y-101252380D01*
X120038095Y-102157142D02*
X119990476Y-102204761D01*
X119847619Y-102252380D01*
X119752380Y-102252380D01*
X119609523Y-102204761D01*
X119514285Y-102109523D01*
X119466666Y-102014285D01*
X119419047Y-101823809D01*
X119419047Y-101680952D01*
X119466666Y-101490476D01*
X119514285Y-101395238D01*
X119609523Y-101300000D01*
X119752380Y-101252380D01*
X119847619Y-101252380D01*
X119990476Y-101300000D01*
X120038095Y-101347619D01*
X121038095Y-102157142D02*
X120990476Y-102204761D01*
X120847619Y-102252380D01*
X120752380Y-102252380D01*
X120609523Y-102204761D01*
X120514285Y-102109523D01*
X120466666Y-102014285D01*
X120419047Y-101823809D01*
X120419047Y-101680952D01*
X120466666Y-101490476D01*
X120514285Y-101395238D01*
X120609523Y-101300000D01*
X120752380Y-101252380D01*
X120847619Y-101252380D01*
X120990476Y-101300000D01*
X121038095Y-101347619D01*
X138833333Y-115502380D02*
X138500000Y-115026190D01*
X138261904Y-115502380D02*
X138261904Y-114502380D01*
X138642857Y-114502380D01*
X138738095Y-114550000D01*
X138785714Y-114597619D01*
X138833333Y-114692857D01*
X138833333Y-114835714D01*
X138785714Y-114930952D01*
X138738095Y-114978571D01*
X138642857Y-115026190D01*
X138261904Y-115026190D01*
X139166666Y-114502380D02*
X139833333Y-115502380D01*
X139833333Y-114502380D02*
X139166666Y-115502380D01*
X130500000Y-100357142D02*
X130547619Y-100404761D01*
X130500000Y-100452380D01*
X130452380Y-100404761D01*
X130500000Y-100357142D01*
X130500000Y-100452380D01*
%TO.C,C8*%
X135433333Y-96457142D02*
X135385714Y-96504761D01*
X135242857Y-96552380D01*
X135147619Y-96552380D01*
X135004761Y-96504761D01*
X134909523Y-96409523D01*
X134861904Y-96314285D01*
X134814285Y-96123809D01*
X134814285Y-95980952D01*
X134861904Y-95790476D01*
X134909523Y-95695238D01*
X135004761Y-95600000D01*
X135147619Y-95552380D01*
X135242857Y-95552380D01*
X135385714Y-95600000D01*
X135433333Y-95647619D01*
X136004761Y-95980952D02*
X135909523Y-95933333D01*
X135861904Y-95885714D01*
X135814285Y-95790476D01*
X135814285Y-95742857D01*
X135861904Y-95647619D01*
X135909523Y-95600000D01*
X136004761Y-95552380D01*
X136195238Y-95552380D01*
X136290476Y-95600000D01*
X136338095Y-95647619D01*
X136385714Y-95742857D01*
X136385714Y-95790476D01*
X136338095Y-95885714D01*
X136290476Y-95933333D01*
X136195238Y-95980952D01*
X136004761Y-95980952D01*
X135909523Y-96028571D01*
X135861904Y-96076190D01*
X135814285Y-96171428D01*
X135814285Y-96361904D01*
X135861904Y-96457142D01*
X135909523Y-96504761D01*
X136004761Y-96552380D01*
X136195238Y-96552380D01*
X136290476Y-96504761D01*
X136338095Y-96457142D01*
X136385714Y-96361904D01*
X136385714Y-96171428D01*
X136338095Y-96076190D01*
X136290476Y-96028571D01*
X136195238Y-95980952D01*
%TO.C,R1*%
X123025833Y-89612380D02*
X122692500Y-89136190D01*
X122454404Y-89612380D02*
X122454404Y-88612380D01*
X122835357Y-88612380D01*
X122930595Y-88660000D01*
X122978214Y-88707619D01*
X123025833Y-88802857D01*
X123025833Y-88945714D01*
X122978214Y-89040952D01*
X122930595Y-89088571D01*
X122835357Y-89136190D01*
X122454404Y-89136190D01*
X123978214Y-89612380D02*
X123406785Y-89612380D01*
X123692500Y-89612380D02*
X123692500Y-88612380D01*
X123597261Y-88755238D01*
X123502023Y-88850476D01*
X123406785Y-88898095D01*
%TO.C,U1*%
X113538095Y-86752380D02*
X113538095Y-87561904D01*
X113585714Y-87657142D01*
X113633333Y-87704761D01*
X113728571Y-87752380D01*
X113919047Y-87752380D01*
X114014285Y-87704761D01*
X114061904Y-87657142D01*
X114109523Y-87561904D01*
X114109523Y-86752380D01*
X115109523Y-87752380D02*
X114538095Y-87752380D01*
X114823809Y-87752380D02*
X114823809Y-86752380D01*
X114728571Y-86895238D01*
X114633333Y-86990476D01*
X114538095Y-87038095D01*
%TO.C,R2*%
X129233333Y-102952380D02*
X128900000Y-102476190D01*
X128661904Y-102952380D02*
X128661904Y-101952380D01*
X129042857Y-101952380D01*
X129138095Y-102000000D01*
X129185714Y-102047619D01*
X129233333Y-102142857D01*
X129233333Y-102285714D01*
X129185714Y-102380952D01*
X129138095Y-102428571D01*
X129042857Y-102476190D01*
X128661904Y-102476190D01*
X129614285Y-102047619D02*
X129661904Y-102000000D01*
X129757142Y-101952380D01*
X129995238Y-101952380D01*
X130090476Y-102000000D01*
X130138095Y-102047619D01*
X130185714Y-102142857D01*
X130185714Y-102238095D01*
X130138095Y-102380952D01*
X129566666Y-102952380D01*
X130185714Y-102952380D01*
%TO.C,C3*%
X133233333Y-102932142D02*
X133185714Y-102979761D01*
X133042857Y-103027380D01*
X132947619Y-103027380D01*
X132804761Y-102979761D01*
X132709523Y-102884523D01*
X132661904Y-102789285D01*
X132614285Y-102598809D01*
X132614285Y-102455952D01*
X132661904Y-102265476D01*
X132709523Y-102170238D01*
X132804761Y-102075000D01*
X132947619Y-102027380D01*
X133042857Y-102027380D01*
X133185714Y-102075000D01*
X133233333Y-102122619D01*
X133566666Y-102027380D02*
X134185714Y-102027380D01*
X133852380Y-102408333D01*
X133995238Y-102408333D01*
X134090476Y-102455952D01*
X134138095Y-102503571D01*
X134185714Y-102598809D01*
X134185714Y-102836904D01*
X134138095Y-102932142D01*
X134090476Y-102979761D01*
X133995238Y-103027380D01*
X133709523Y-103027380D01*
X133614285Y-102979761D01*
X133566666Y-102932142D01*
%TO.C,U2*%
X125438095Y-100852380D02*
X125438095Y-101661904D01*
X125485714Y-101757142D01*
X125533333Y-101804761D01*
X125628571Y-101852380D01*
X125819047Y-101852380D01*
X125914285Y-101804761D01*
X125961904Y-101757142D01*
X126009523Y-101661904D01*
X126009523Y-100852380D01*
X126438095Y-100947619D02*
X126485714Y-100900000D01*
X126580952Y-100852380D01*
X126819047Y-100852380D01*
X126914285Y-100900000D01*
X126961904Y-100947619D01*
X127009523Y-101042857D01*
X127009523Y-101138095D01*
X126961904Y-101280952D01*
X126390476Y-101852380D01*
X127009523Y-101852380D01*
%TO.C,D2*%
X124161904Y-94752380D02*
X124161904Y-93752380D01*
X124400000Y-93752380D01*
X124542857Y-93800000D01*
X124638095Y-93895238D01*
X124685714Y-93990476D01*
X124733333Y-94180952D01*
X124733333Y-94323809D01*
X124685714Y-94514285D01*
X124638095Y-94609523D01*
X124542857Y-94704761D01*
X124400000Y-94752380D01*
X124161904Y-94752380D01*
X125114285Y-93847619D02*
X125161904Y-93800000D01*
X125257142Y-93752380D01*
X125495238Y-93752380D01*
X125590476Y-93800000D01*
X125638095Y-93847619D01*
X125685714Y-93942857D01*
X125685714Y-94038095D01*
X125638095Y-94180952D01*
X125066666Y-94752380D01*
X125685714Y-94752380D01*
%TO.C,D3*%
X142906904Y-110052380D02*
X142906904Y-109052380D01*
X143145000Y-109052380D01*
X143287857Y-109100000D01*
X143383095Y-109195238D01*
X143430714Y-109290476D01*
X143478333Y-109480952D01*
X143478333Y-109623809D01*
X143430714Y-109814285D01*
X143383095Y-109909523D01*
X143287857Y-110004761D01*
X143145000Y-110052380D01*
X142906904Y-110052380D01*
X143811666Y-109052380D02*
X144430714Y-109052380D01*
X144097380Y-109433333D01*
X144240238Y-109433333D01*
X144335476Y-109480952D01*
X144383095Y-109528571D01*
X144430714Y-109623809D01*
X144430714Y-109861904D01*
X144383095Y-109957142D01*
X144335476Y-110004761D01*
X144240238Y-110052380D01*
X143954523Y-110052380D01*
X143859285Y-110004761D01*
X143811666Y-109957142D01*
%TO.C,J3*%
X121696666Y-75472380D02*
X121696666Y-76186666D01*
X121649047Y-76329523D01*
X121553809Y-76424761D01*
X121410952Y-76472380D01*
X121315714Y-76472380D01*
X122077619Y-75472380D02*
X122696666Y-75472380D01*
X122363333Y-75853333D01*
X122506190Y-75853333D01*
X122601428Y-75900952D01*
X122649047Y-75948571D01*
X122696666Y-76043809D01*
X122696666Y-76281904D01*
X122649047Y-76377142D01*
X122601428Y-76424761D01*
X122506190Y-76472380D01*
X122220476Y-76472380D01*
X122125238Y-76424761D01*
X122077619Y-76377142D01*
%TO.C,X1*%
X137340476Y-95552380D02*
X138007142Y-96552380D01*
X138007142Y-95552380D02*
X137340476Y-96552380D01*
X138911904Y-96552380D02*
X138340476Y-96552380D01*
X138626190Y-96552380D02*
X138626190Y-95552380D01*
X138530952Y-95695238D01*
X138435714Y-95790476D01*
X138340476Y-95838095D01*
%TO.C,R3*%
X132933333Y-108152380D02*
X132600000Y-107676190D01*
X132361904Y-108152380D02*
X132361904Y-107152380D01*
X132742857Y-107152380D01*
X132838095Y-107200000D01*
X132885714Y-107247619D01*
X132933333Y-107342857D01*
X132933333Y-107485714D01*
X132885714Y-107580952D01*
X132838095Y-107628571D01*
X132742857Y-107676190D01*
X132361904Y-107676190D01*
X133266666Y-107152380D02*
X133885714Y-107152380D01*
X133552380Y-107533333D01*
X133695238Y-107533333D01*
X133790476Y-107580952D01*
X133838095Y-107628571D01*
X133885714Y-107723809D01*
X133885714Y-107961904D01*
X133838095Y-108057142D01*
X133790476Y-108104761D01*
X133695238Y-108152380D01*
X133409523Y-108152380D01*
X133314285Y-108104761D01*
X133266666Y-108057142D01*
%TO.C,U3*%
X141558095Y-87842380D02*
X141558095Y-88651904D01*
X141605714Y-88747142D01*
X141653333Y-88794761D01*
X141748571Y-88842380D01*
X141939047Y-88842380D01*
X142034285Y-88794761D01*
X142081904Y-88747142D01*
X142129523Y-88651904D01*
X142129523Y-87842380D01*
X142510476Y-87842380D02*
X143129523Y-87842380D01*
X142796190Y-88223333D01*
X142939047Y-88223333D01*
X143034285Y-88270952D01*
X143081904Y-88318571D01*
X143129523Y-88413809D01*
X143129523Y-88651904D01*
X143081904Y-88747142D01*
X143034285Y-88794761D01*
X142939047Y-88842380D01*
X142653333Y-88842380D01*
X142558095Y-88794761D01*
X142510476Y-88747142D01*
%TO.C,C5*%
X123233333Y-97357142D02*
X123185714Y-97404761D01*
X123042857Y-97452380D01*
X122947619Y-97452380D01*
X122804761Y-97404761D01*
X122709523Y-97309523D01*
X122661904Y-97214285D01*
X122614285Y-97023809D01*
X122614285Y-96880952D01*
X122661904Y-96690476D01*
X122709523Y-96595238D01*
X122804761Y-96500000D01*
X122947619Y-96452380D01*
X123042857Y-96452380D01*
X123185714Y-96500000D01*
X123233333Y-96547619D01*
X124138095Y-96452380D02*
X123661904Y-96452380D01*
X123614285Y-96928571D01*
X123661904Y-96880952D01*
X123757142Y-96833333D01*
X123995238Y-96833333D01*
X124090476Y-96880952D01*
X124138095Y-96928571D01*
X124185714Y-97023809D01*
X124185714Y-97261904D01*
X124138095Y-97357142D01*
X124090476Y-97404761D01*
X123995238Y-97452380D01*
X123757142Y-97452380D01*
X123661904Y-97404761D01*
X123614285Y-97357142D01*
%TO.C,R4*%
X125033333Y-93352380D02*
X124700000Y-92876190D01*
X124461904Y-93352380D02*
X124461904Y-92352380D01*
X124842857Y-92352380D01*
X124938095Y-92400000D01*
X124985714Y-92447619D01*
X125033333Y-92542857D01*
X125033333Y-92685714D01*
X124985714Y-92780952D01*
X124938095Y-92828571D01*
X124842857Y-92876190D01*
X124461904Y-92876190D01*
X125890476Y-92685714D02*
X125890476Y-93352380D01*
X125652380Y-92304761D02*
X125414285Y-93019047D01*
X126033333Y-93019047D01*
%TO.C,SW1*%
X133266666Y-92304761D02*
X133409523Y-92352380D01*
X133647619Y-92352380D01*
X133742857Y-92304761D01*
X133790476Y-92257142D01*
X133838095Y-92161904D01*
X133838095Y-92066666D01*
X133790476Y-91971428D01*
X133742857Y-91923809D01*
X133647619Y-91876190D01*
X133457142Y-91828571D01*
X133361904Y-91780952D01*
X133314285Y-91733333D01*
X133266666Y-91638095D01*
X133266666Y-91542857D01*
X133314285Y-91447619D01*
X133361904Y-91400000D01*
X133457142Y-91352380D01*
X133695238Y-91352380D01*
X133838095Y-91400000D01*
X134171428Y-91352380D02*
X134409523Y-92352380D01*
X134600000Y-91638095D01*
X134790476Y-92352380D01*
X135028571Y-91352380D01*
X135933333Y-92352380D02*
X135361904Y-92352380D01*
X135647619Y-92352380D02*
X135647619Y-91352380D01*
X135552380Y-91495238D01*
X135457142Y-91590476D01*
X135361904Y-91638095D01*
%TO.C,C4*%
X131183333Y-102882142D02*
X131135714Y-102929761D01*
X130992857Y-102977380D01*
X130897619Y-102977380D01*
X130754761Y-102929761D01*
X130659523Y-102834523D01*
X130611904Y-102739285D01*
X130564285Y-102548809D01*
X130564285Y-102405952D01*
X130611904Y-102215476D01*
X130659523Y-102120238D01*
X130754761Y-102025000D01*
X130897619Y-101977380D01*
X130992857Y-101977380D01*
X131135714Y-102025000D01*
X131183333Y-102072619D01*
X132040476Y-102310714D02*
X132040476Y-102977380D01*
X131802380Y-101929761D02*
X131564285Y-102644047D01*
X132183333Y-102644047D01*
%TO.C,R5*%
X150123333Y-88452380D02*
X149790000Y-87976190D01*
X149551904Y-88452380D02*
X149551904Y-87452380D01*
X149932857Y-87452380D01*
X150028095Y-87500000D01*
X150075714Y-87547619D01*
X150123333Y-87642857D01*
X150123333Y-87785714D01*
X150075714Y-87880952D01*
X150028095Y-87928571D01*
X149932857Y-87976190D01*
X149551904Y-87976190D01*
X151028095Y-87452380D02*
X150551904Y-87452380D01*
X150504285Y-87928571D01*
X150551904Y-87880952D01*
X150647142Y-87833333D01*
X150885238Y-87833333D01*
X150980476Y-87880952D01*
X151028095Y-87928571D01*
X151075714Y-88023809D01*
X151075714Y-88261904D01*
X151028095Y-88357142D01*
X150980476Y-88404761D01*
X150885238Y-88452380D01*
X150647142Y-88452380D01*
X150551904Y-88404761D01*
X150504285Y-88357142D01*
%TO.C,C7*%
X133433333Y-95157142D02*
X133385714Y-95204761D01*
X133242857Y-95252380D01*
X133147619Y-95252380D01*
X133004761Y-95204761D01*
X132909523Y-95109523D01*
X132861904Y-95014285D01*
X132814285Y-94823809D01*
X132814285Y-94680952D01*
X132861904Y-94490476D01*
X132909523Y-94395238D01*
X133004761Y-94300000D01*
X133147619Y-94252380D01*
X133242857Y-94252380D01*
X133385714Y-94300000D01*
X133433333Y-94347619D01*
X133766666Y-94252380D02*
X134433333Y-94252380D01*
X134004761Y-95252380D01*
%TO.C,R6*%
X143478333Y-111352380D02*
X143145000Y-110876190D01*
X142906904Y-111352380D02*
X142906904Y-110352380D01*
X143287857Y-110352380D01*
X143383095Y-110400000D01*
X143430714Y-110447619D01*
X143478333Y-110542857D01*
X143478333Y-110685714D01*
X143430714Y-110780952D01*
X143383095Y-110828571D01*
X143287857Y-110876190D01*
X142906904Y-110876190D01*
X144335476Y-110352380D02*
X144145000Y-110352380D01*
X144049761Y-110400000D01*
X144002142Y-110447619D01*
X143906904Y-110590476D01*
X143859285Y-110780952D01*
X143859285Y-111161904D01*
X143906904Y-111257142D01*
X143954523Y-111304761D01*
X144049761Y-111352380D01*
X144240238Y-111352380D01*
X144335476Y-111304761D01*
X144383095Y-111257142D01*
X144430714Y-111161904D01*
X144430714Y-110923809D01*
X144383095Y-110828571D01*
X144335476Y-110780952D01*
X144240238Y-110733333D01*
X144049761Y-110733333D01*
X143954523Y-110780952D01*
X143906904Y-110828571D01*
X143859285Y-110923809D01*
%TO.C,C2*%
X121183333Y-92857142D02*
X121135714Y-92904761D01*
X120992857Y-92952380D01*
X120897619Y-92952380D01*
X120754761Y-92904761D01*
X120659523Y-92809523D01*
X120611904Y-92714285D01*
X120564285Y-92523809D01*
X120564285Y-92380952D01*
X120611904Y-92190476D01*
X120659523Y-92095238D01*
X120754761Y-92000000D01*
X120897619Y-91952380D01*
X120992857Y-91952380D01*
X121135714Y-92000000D01*
X121183333Y-92047619D01*
X121564285Y-92047619D02*
X121611904Y-92000000D01*
X121707142Y-91952380D01*
X121945238Y-91952380D01*
X122040476Y-92000000D01*
X122088095Y-92047619D01*
X122135714Y-92142857D01*
X122135714Y-92238095D01*
X122088095Y-92380952D01*
X121516666Y-92952380D01*
X122135714Y-92952380D01*
%TO.C,SW2*%
X136341666Y-105579761D02*
X136484523Y-105627380D01*
X136722619Y-105627380D01*
X136817857Y-105579761D01*
X136865476Y-105532142D01*
X136913095Y-105436904D01*
X136913095Y-105341666D01*
X136865476Y-105246428D01*
X136817857Y-105198809D01*
X136722619Y-105151190D01*
X136532142Y-105103571D01*
X136436904Y-105055952D01*
X136389285Y-105008333D01*
X136341666Y-104913095D01*
X136341666Y-104817857D01*
X136389285Y-104722619D01*
X136436904Y-104675000D01*
X136532142Y-104627380D01*
X136770238Y-104627380D01*
X136913095Y-104675000D01*
X137246428Y-104627380D02*
X137484523Y-105627380D01*
X137675000Y-104913095D01*
X137865476Y-105627380D01*
X138103571Y-104627380D01*
X138436904Y-104722619D02*
X138484523Y-104675000D01*
X138579761Y-104627380D01*
X138817857Y-104627380D01*
X138913095Y-104675000D01*
X138960714Y-104722619D01*
X139008333Y-104817857D01*
X139008333Y-104913095D01*
X138960714Y-105055952D01*
X138389285Y-105627380D01*
X139008333Y-105627380D01*
%TO.C,J4*%
X147576666Y-75452380D02*
X147576666Y-76166666D01*
X147529047Y-76309523D01*
X147433809Y-76404761D01*
X147290952Y-76452380D01*
X147195714Y-76452380D01*
X148481428Y-75785714D02*
X148481428Y-76452380D01*
X148243333Y-75404761D02*
X148005238Y-76119047D01*
X148624285Y-76119047D01*
%TO.C,FB1*%
X132966666Y-93428571D02*
X132633333Y-93428571D01*
X132633333Y-93952380D02*
X132633333Y-92952380D01*
X133109523Y-92952380D01*
X133823809Y-93428571D02*
X133966666Y-93476190D01*
X134014285Y-93523809D01*
X134061904Y-93619047D01*
X134061904Y-93761904D01*
X134014285Y-93857142D01*
X133966666Y-93904761D01*
X133871428Y-93952380D01*
X133490476Y-93952380D01*
X133490476Y-92952380D01*
X133823809Y-92952380D01*
X133919047Y-93000000D01*
X133966666Y-93047619D01*
X134014285Y-93142857D01*
X134014285Y-93238095D01*
X133966666Y-93333333D01*
X133919047Y-93380952D01*
X133823809Y-93428571D01*
X133490476Y-93428571D01*
X135014285Y-93952380D02*
X134442857Y-93952380D01*
X134728571Y-93952380D02*
X134728571Y-92952380D01*
X134633333Y-93095238D01*
X134538095Y-93190476D01*
X134442857Y-93238095D01*
%TO.C,J1*%
X111266666Y-107752380D02*
X111266666Y-108466666D01*
X111219047Y-108609523D01*
X111123809Y-108704761D01*
X110980952Y-108752380D01*
X110885714Y-108752380D01*
X112266666Y-108752380D02*
X111695238Y-108752380D01*
X111980952Y-108752380D02*
X111980952Y-107752380D01*
X111885714Y-107895238D01*
X111790476Y-107990476D01*
X111695238Y-108038095D01*
%TO.C,C9*%
X135333333Y-101757142D02*
X135285714Y-101804761D01*
X135142857Y-101852380D01*
X135047619Y-101852380D01*
X134904761Y-101804761D01*
X134809523Y-101709523D01*
X134761904Y-101614285D01*
X134714285Y-101423809D01*
X134714285Y-101280952D01*
X134761904Y-101090476D01*
X134809523Y-100995238D01*
X134904761Y-100900000D01*
X135047619Y-100852380D01*
X135142857Y-100852380D01*
X135285714Y-100900000D01*
X135333333Y-100947619D01*
X135809523Y-101852380D02*
X136000000Y-101852380D01*
X136095238Y-101804761D01*
X136142857Y-101757142D01*
X136238095Y-101614285D01*
X136285714Y-101423809D01*
X136285714Y-101042857D01*
X136238095Y-100947619D01*
X136190476Y-100900000D01*
X136095238Y-100852380D01*
X135904761Y-100852380D01*
X135809523Y-100900000D01*
X135761904Y-100947619D01*
X135714285Y-101042857D01*
X135714285Y-101280952D01*
X135761904Y-101376190D01*
X135809523Y-101423809D01*
X135904761Y-101471428D01*
X136095238Y-101471428D01*
X136190476Y-101423809D01*
X136238095Y-101376190D01*
X136285714Y-101280952D01*
%TO.C,C1*%
X116633333Y-98157142D02*
X116585714Y-98204761D01*
X116442857Y-98252380D01*
X116347619Y-98252380D01*
X116204761Y-98204761D01*
X116109523Y-98109523D01*
X116061904Y-98014285D01*
X116014285Y-97823809D01*
X116014285Y-97680952D01*
X116061904Y-97490476D01*
X116109523Y-97395238D01*
X116204761Y-97300000D01*
X116347619Y-97252380D01*
X116442857Y-97252380D01*
X116585714Y-97300000D01*
X116633333Y-97347619D01*
X117585714Y-98252380D02*
X117014285Y-98252380D01*
X117300000Y-98252380D02*
X117300000Y-97252380D01*
X117204761Y-97395238D01*
X117109523Y-97490476D01*
X117014285Y-97538095D01*
%TO.C,SW3*%
X153436666Y-85344761D02*
X153579523Y-85392380D01*
X153817619Y-85392380D01*
X153912857Y-85344761D01*
X153960476Y-85297142D01*
X154008095Y-85201904D01*
X154008095Y-85106666D01*
X153960476Y-85011428D01*
X153912857Y-84963809D01*
X153817619Y-84916190D01*
X153627142Y-84868571D01*
X153531904Y-84820952D01*
X153484285Y-84773333D01*
X153436666Y-84678095D01*
X153436666Y-84582857D01*
X153484285Y-84487619D01*
X153531904Y-84440000D01*
X153627142Y-84392380D01*
X153865238Y-84392380D01*
X154008095Y-84440000D01*
X154341428Y-84392380D02*
X154579523Y-85392380D01*
X154770000Y-84678095D01*
X154960476Y-85392380D01*
X155198571Y-84392380D01*
X155484285Y-84392380D02*
X156103333Y-84392380D01*
X155770000Y-84773333D01*
X155912857Y-84773333D01*
X156008095Y-84820952D01*
X156055714Y-84868571D01*
X156103333Y-84963809D01*
X156103333Y-85201904D01*
X156055714Y-85297142D01*
X156008095Y-85344761D01*
X155912857Y-85392380D01*
X155627142Y-85392380D01*
X155531904Y-85344761D01*
X155484285Y-85297142D01*
%TO.C,D1*%
X122504404Y-88187380D02*
X122504404Y-87187380D01*
X122742500Y-87187380D01*
X122885357Y-87235000D01*
X122980595Y-87330238D01*
X123028214Y-87425476D01*
X123075833Y-87615952D01*
X123075833Y-87758809D01*
X123028214Y-87949285D01*
X122980595Y-88044523D01*
X122885357Y-88139761D01*
X122742500Y-88187380D01*
X122504404Y-88187380D01*
X124028214Y-88187380D02*
X123456785Y-88187380D01*
X123742500Y-88187380D02*
X123742500Y-87187380D01*
X123647261Y-87330238D01*
X123552023Y-87425476D01*
X123456785Y-87473095D01*
%TO.C,J5*%
X147646666Y-121462380D02*
X147646666Y-122176666D01*
X147599047Y-122319523D01*
X147503809Y-122414761D01*
X147360952Y-122462380D01*
X147265714Y-122462380D01*
X148599047Y-121462380D02*
X148122857Y-121462380D01*
X148075238Y-121938571D01*
X148122857Y-121890952D01*
X148218095Y-121843333D01*
X148456190Y-121843333D01*
X148551428Y-121890952D01*
X148599047Y-121938571D01*
X148646666Y-122033809D01*
X148646666Y-122271904D01*
X148599047Y-122367142D01*
X148551428Y-122414761D01*
X148456190Y-122462380D01*
X148218095Y-122462380D01*
X148122857Y-122414761D01*
X148075238Y-122367142D01*
%TO.C,J2*%
X121666666Y-121422380D02*
X121666666Y-122136666D01*
X121619047Y-122279523D01*
X121523809Y-122374761D01*
X121380952Y-122422380D01*
X121285714Y-122422380D01*
X122095238Y-121517619D02*
X122142857Y-121470000D01*
X122238095Y-121422380D01*
X122476190Y-121422380D01*
X122571428Y-121470000D01*
X122619047Y-121517619D01*
X122666666Y-121612857D01*
X122666666Y-121708095D01*
X122619047Y-121850952D01*
X122047619Y-122422380D01*
X122666666Y-122422380D01*
%TO.C,C6*%
X133433333Y-96457142D02*
X133385714Y-96504761D01*
X133242857Y-96552380D01*
X133147619Y-96552380D01*
X133004761Y-96504761D01*
X132909523Y-96409523D01*
X132861904Y-96314285D01*
X132814285Y-96123809D01*
X132814285Y-95980952D01*
X132861904Y-95790476D01*
X132909523Y-95695238D01*
X133004761Y-95600000D01*
X133147619Y-95552380D01*
X133242857Y-95552380D01*
X133385714Y-95600000D01*
X133433333Y-95647619D01*
X134290476Y-95552380D02*
X134100000Y-95552380D01*
X134004761Y-95600000D01*
X133957142Y-95647619D01*
X133861904Y-95790476D01*
X133814285Y-95980952D01*
X133814285Y-96361904D01*
X133861904Y-96457142D01*
X133909523Y-96504761D01*
X134004761Y-96552380D01*
X134195238Y-96552380D01*
X134290476Y-96504761D01*
X134338095Y-96457142D01*
X134385714Y-96361904D01*
X134385714Y-96123809D01*
X134338095Y-96028571D01*
X134290476Y-95980952D01*
X134195238Y-95933333D01*
X134004761Y-95933333D01*
X133909523Y-95980952D01*
X133861904Y-96028571D01*
X133814285Y-96123809D01*
D12*
%TO.C,C8*%
X133740000Y-98107836D02*
X133740000Y-97892164D01*
X134460000Y-98107836D02*
X134460000Y-97892164D01*
%TO.C,R1*%
X121146141Y-89440000D02*
X120838859Y-89440000D01*
X121146141Y-88680000D02*
X120838859Y-88680000D01*
%TO.C,U1*%
X110890000Y-96600000D02*
X110890000Y-90590000D01*
X117710000Y-94350000D02*
X117710000Y-90590000D01*
X117710000Y-90590000D02*
X116450000Y-90590000D01*
X110890000Y-90590000D02*
X112150000Y-90590000D01*
%TO.C,R2*%
X129521359Y-100920000D02*
X129828641Y-100920000D01*
X129521359Y-101680000D02*
X129828641Y-101680000D01*
%TO.C,C3*%
X131840000Y-100017164D02*
X131840000Y-100232836D01*
X132560000Y-100017164D02*
X132560000Y-100232836D01*
%TO.C,U2*%
X125890000Y-100110000D02*
X125890000Y-99885000D01*
X126115000Y-95890000D02*
X125890000Y-95890000D01*
X129885000Y-100110000D02*
X130110000Y-100110000D01*
X125890000Y-95890000D02*
X125890000Y-96115000D01*
X126115000Y-100110000D02*
X125890000Y-100110000D01*
X130110000Y-95890000D02*
X130110000Y-96115000D01*
X129885000Y-95890000D02*
X130110000Y-95890000D01*
%TO.C,D2*%
X126015000Y-95135000D02*
X128300000Y-95135000D01*
X128300000Y-93665000D02*
X126015000Y-93665000D01*
X126015000Y-93665000D02*
X126015000Y-95135000D01*
%TO.C,D3*%
X144760000Y-108865000D02*
X144760000Y-110335000D01*
X147045000Y-108865000D02*
X144760000Y-108865000D01*
X144760000Y-110335000D02*
X147045000Y-110335000D01*
%TO.C,J3*%
X131350000Y-76250000D02*
X131350000Y-74450000D01*
X131400000Y-81550000D02*
X130800000Y-81550000D01*
X128350000Y-76250000D02*
X128850000Y-76250000D01*
X130850000Y-74450000D02*
X130850000Y-76250000D01*
X130850000Y-76250000D02*
X131350000Y-76250000D01*
X125850000Y-74450000D02*
X125850000Y-76250000D01*
X133660000Y-74450000D02*
X133660000Y-81860000D01*
X123540000Y-74450000D02*
X123540000Y-81860000D01*
X124960000Y-81860000D02*
X124960000Y-77360000D01*
X128850000Y-76250000D02*
X128850000Y-74450000D01*
X125850000Y-76250000D02*
X126350000Y-76250000D01*
X130800000Y-81550000D02*
X131100000Y-80950000D01*
X124960000Y-77360000D02*
X128600000Y-77360000D01*
X123540000Y-81860000D02*
X124960000Y-81860000D01*
X132240000Y-77360000D02*
X128600000Y-77360000D01*
X131100000Y-80950000D02*
X131400000Y-81550000D01*
X133660000Y-81860000D02*
X132240000Y-81860000D01*
X128350000Y-74450000D02*
X128350000Y-76250000D01*
X126350000Y-76250000D02*
X126350000Y-74450000D01*
X132240000Y-81860000D02*
X132240000Y-77360000D01*
%TO.C,X1*%
X134800000Y-96925000D02*
X134800000Y-100075000D01*
X134800000Y-100075000D02*
X138800000Y-100075000D01*
%TO.C,R3*%
X134295000Y-107153641D02*
X134295000Y-106846359D01*
X135055000Y-107153641D02*
X135055000Y-106846359D01*
%TO.C,U3*%
X141650000Y-108120000D02*
X140870000Y-108120000D01*
X140870000Y-108120000D02*
X140870000Y-107120000D01*
X140870000Y-89880000D02*
X140870000Y-90880000D01*
X141650000Y-89880000D02*
X140870000Y-89880000D01*
%TO.C,C5*%
X124440000Y-97107836D02*
X124440000Y-96892164D01*
X125160000Y-97107836D02*
X125160000Y-96892164D01*
%TO.C,R4*%
X127046359Y-92720000D02*
X127353641Y-92720000D01*
X127046359Y-93480000D02*
X127353641Y-93480000D01*
%TO.C,G\u002A\u002A\u002A*%
G36*
X118387130Y-108801909D02*
G01*
X118388559Y-108808103D01*
X118389880Y-108819281D01*
X118391099Y-108836141D01*
X118392218Y-108859382D01*
X118393242Y-108889701D01*
X118394175Y-108927799D01*
X118395021Y-108974373D01*
X118395784Y-109030122D01*
X118396468Y-109095744D01*
X118397077Y-109171939D01*
X118397614Y-109259404D01*
X118398085Y-109358839D01*
X118398493Y-109470942D01*
X118398842Y-109596412D01*
X118399136Y-109735946D01*
X118399380Y-109890245D01*
X118399576Y-110060006D01*
X118399730Y-110245928D01*
X118399845Y-110448709D01*
X118399925Y-110669049D01*
X118399974Y-110907645D01*
X118399997Y-111165197D01*
X118400000Y-111300000D01*
X118400000Y-113800000D01*
X114400000Y-113800000D01*
X114400000Y-112978665D01*
X114426299Y-112944185D01*
X114451788Y-112917721D01*
X114481119Y-112896429D01*
X114486628Y-112893556D01*
X114504614Y-112884045D01*
X114522265Y-112871944D01*
X114541987Y-112854912D01*
X114566189Y-112830613D01*
X114597277Y-112796705D01*
X114637661Y-112750852D01*
X114660000Y-112725129D01*
X114739883Y-112642409D01*
X114820973Y-112576905D01*
X114902188Y-112529247D01*
X114982449Y-112500069D01*
X115060674Y-112490002D01*
X115061844Y-112490000D01*
X115088805Y-112487312D01*
X115105145Y-112475624D01*
X115115969Y-112457500D01*
X115135221Y-112422148D01*
X115160796Y-112378809D01*
X115190111Y-112331471D01*
X115220583Y-112284121D01*
X115249628Y-112240749D01*
X115274664Y-112205343D01*
X115293108Y-112181890D01*
X115297401Y-112177364D01*
X115320174Y-112160445D01*
X115350884Y-112147602D01*
X115395019Y-112136666D01*
X115405688Y-112134565D01*
X115450917Y-112123900D01*
X115485512Y-112111733D01*
X115503668Y-112100754D01*
X115513711Y-112089278D01*
X115516128Y-112078116D01*
X115510137Y-112061432D01*
X115494953Y-112033390D01*
X115494506Y-112032596D01*
X115479259Y-112000617D01*
X115472399Y-111975535D01*
X115473024Y-111966543D01*
X115486999Y-111952193D01*
X115509016Y-111952552D01*
X115534510Y-111966802D01*
X115548129Y-111980000D01*
X115572003Y-112002879D01*
X115590411Y-112008779D01*
X115606881Y-111998581D01*
X115609681Y-111995383D01*
X115629295Y-111985160D01*
X115662752Y-111981607D01*
X115665445Y-111981642D01*
X115697232Y-111985255D01*
X115720810Y-111997719D01*
X115739628Y-112016090D01*
X115768753Y-112042261D01*
X115800060Y-112055882D01*
X115839680Y-112058777D01*
X115873042Y-112055737D01*
X115913193Y-112050979D01*
X115960258Y-112045993D01*
X115988378Y-112043295D01*
X116022921Y-112039672D01*
X116043415Y-112034368D01*
X116055733Y-112023913D01*
X116065746Y-112004837D01*
X116069967Y-111995074D01*
X116095562Y-111957496D01*
X116133241Y-111935835D01*
X116174818Y-111930000D01*
X116196194Y-111921621D01*
X116221362Y-111898905D01*
X116227271Y-111891898D01*
X116253654Y-111865448D01*
X116285577Y-111847261D01*
X116326903Y-111836134D01*
X116381495Y-111830860D01*
X116425594Y-111830000D01*
X116513868Y-111830000D01*
X116566934Y-111775212D01*
X116592541Y-111746570D01*
X116611385Y-111721293D01*
X116619896Y-111704254D01*
X116620061Y-111702712D01*
X116624597Y-111681587D01*
X116635408Y-111655688D01*
X116645226Y-111626909D01*
X116640869Y-111598221D01*
X116640346Y-111596696D01*
X116634212Y-111568862D01*
X116630503Y-111532281D01*
X116629999Y-111514781D01*
X116631149Y-111484091D01*
X116637109Y-111463220D01*
X116651648Y-111444351D01*
X116673880Y-111423773D01*
X116724592Y-111382734D01*
X116776172Y-111347648D01*
X116824713Y-111320739D01*
X116866306Y-111304229D01*
X116891503Y-111300000D01*
X116909731Y-111290936D01*
X116925547Y-111263021D01*
X116925752Y-111262500D01*
X116940596Y-111227040D01*
X116952466Y-111206621D01*
X116964582Y-111197266D01*
X116980168Y-111195000D01*
X116980454Y-111195000D01*
X116997971Y-111199660D01*
X117008789Y-111217022D01*
X117012630Y-111230000D01*
X117025753Y-111260603D01*
X117046601Y-111290882D01*
X117050766Y-111295476D01*
X117063699Y-111309780D01*
X117072116Y-111323389D01*
X117076984Y-111340872D01*
X117079275Y-111366796D01*
X117079958Y-111405730D01*
X117080000Y-111433190D01*
X117080594Y-111484364D01*
X117083566Y-111521652D01*
X117090697Y-111551162D01*
X117103768Y-111579000D01*
X117124561Y-111611272D01*
X117137221Y-111629304D01*
X117147940Y-111632588D01*
X117173062Y-111637028D01*
X117206426Y-111641572D01*
X117272577Y-111649536D01*
X117323788Y-111603287D01*
X117357883Y-111575988D01*
X117396938Y-111550011D01*
X117435629Y-111528385D01*
X117468630Y-111514141D01*
X117487500Y-111510097D01*
X117498157Y-111501938D01*
X117497862Y-111478870D01*
X117486751Y-111442626D01*
X117481039Y-111428771D01*
X117469425Y-111390585D01*
X117460293Y-111337241D01*
X117455221Y-111285000D01*
X117451029Y-111235278D01*
X117445715Y-111200299D01*
X117438064Y-111174807D01*
X117426862Y-111153545D01*
X117423776Y-111148877D01*
X117406392Y-111115767D01*
X117394902Y-111080205D01*
X117393797Y-111073877D01*
X117387271Y-111041820D01*
X117378394Y-111014532D01*
X117377182Y-111011882D01*
X117371133Y-110986973D01*
X117376922Y-110971211D01*
X117382199Y-110952995D01*
X117386455Y-110920363D01*
X117389474Y-110878880D01*
X117391040Y-110834112D01*
X117390937Y-110791628D01*
X117388949Y-110756992D01*
X117385937Y-110738958D01*
X117383401Y-110713866D01*
X117385286Y-110679528D01*
X117387910Y-110661493D01*
X117392441Y-110626160D01*
X117389901Y-110603632D01*
X117383946Y-110592535D01*
X117373137Y-110569190D01*
X117370920Y-110544329D01*
X117377810Y-110526696D01*
X117379963Y-110525022D01*
X117383078Y-110513062D01*
X117376525Y-110493206D01*
X117363885Y-110472544D01*
X117348737Y-110458163D01*
X117345369Y-110456525D01*
X117334638Y-110442777D01*
X117330150Y-110416393D01*
X117332272Y-110383853D01*
X117339688Y-110355818D01*
X117352220Y-110337029D01*
X117375566Y-110326654D01*
X117389499Y-110323920D01*
X117417190Y-110317225D01*
X117436179Y-110308555D01*
X117438701Y-110306252D01*
X117443130Y-110291959D01*
X117447720Y-110262570D01*
X117451806Y-110222970D01*
X117453821Y-110195000D01*
X117459823Y-110097451D01*
X117465100Y-110017623D01*
X117469979Y-109953266D01*
X117474789Y-109902127D01*
X117479855Y-109861956D01*
X117485507Y-109830501D01*
X117492071Y-109805512D01*
X117499875Y-109784737D01*
X117509247Y-109765924D01*
X117518565Y-109750000D01*
X117532443Y-109721628D01*
X117539670Y-109695866D01*
X117539962Y-109691577D01*
X117546086Y-109667159D01*
X117560389Y-109642233D01*
X117575124Y-109613734D01*
X117574394Y-109587242D01*
X117573552Y-109562027D01*
X117586120Y-109539322D01*
X117592985Y-109531586D01*
X117612545Y-109500982D01*
X117623505Y-109457767D01*
X117624523Y-109450000D01*
X117637526Y-109384298D01*
X117659677Y-109316702D01*
X117687810Y-109256092D01*
X117701884Y-109233010D01*
X117725322Y-109200852D01*
X117741929Y-109184986D01*
X117753900Y-109183855D01*
X117760836Y-109191218D01*
X117769430Y-109198032D01*
X117780529Y-109188931D01*
X117785285Y-109182500D01*
X117801611Y-109165778D01*
X117814806Y-109160000D01*
X117829331Y-109152648D01*
X117847846Y-109134485D01*
X117851739Y-109129632D01*
X117884745Y-109087356D01*
X117909017Y-109058837D01*
X117927363Y-109041497D01*
X117942591Y-109032759D01*
X117957507Y-109030047D01*
X117960268Y-109030000D01*
X117989208Y-109022249D01*
X118020124Y-109002872D01*
X118045199Y-108977682D01*
X118055193Y-108959390D01*
X118068566Y-108942954D01*
X118094044Y-108926616D01*
X118124108Y-108914329D01*
X118149163Y-108910000D01*
X118165317Y-108903531D01*
X118189260Y-108886867D01*
X118207483Y-108871209D01*
X118238119Y-108846182D01*
X118267620Y-108832509D01*
X118304383Y-108825509D01*
X118335819Y-108820151D01*
X118358373Y-108813647D01*
X118365432Y-108809300D01*
X118379455Y-108800754D01*
X118385590Y-108800000D01*
X118387130Y-108801909D01*
G37*
%TO.C,SW1*%
X132950000Y-90900000D02*
X136250000Y-90900000D01*
X132950000Y-88100000D02*
X136250000Y-88100000D01*
X136250000Y-90900000D02*
X136250000Y-90600000D01*
X132950000Y-88400000D02*
X132950000Y-88100000D01*
X132950000Y-90600000D02*
X132950000Y-90900000D01*
X136250000Y-88100000D02*
X136250000Y-88400000D01*
%TO.C,C4*%
X130840000Y-100017164D02*
X130840000Y-100232836D01*
X131560000Y-100017164D02*
X131560000Y-100232836D01*
%TO.C,R5*%
X152170000Y-86943641D02*
X152170000Y-86636359D01*
X151410000Y-86943641D02*
X151410000Y-86636359D01*
%TO.C,C7*%
X131492164Y-95860000D02*
X131707836Y-95860000D01*
X131492164Y-95140000D02*
X131707836Y-95140000D01*
%TO.C,R6*%
X145791359Y-111280000D02*
X146098641Y-111280000D01*
X145791359Y-110520000D02*
X146098641Y-110520000D01*
%TO.C,C2*%
X119310000Y-92615580D02*
X119310000Y-92334420D01*
X118290000Y-92615580D02*
X118290000Y-92334420D01*
%TO.C,SW2*%
X139300000Y-106400000D02*
X139300000Y-106100000D01*
X136000000Y-108900000D02*
X136000000Y-108600000D01*
X139300000Y-108600000D02*
X139300000Y-108900000D01*
X139300000Y-108900000D02*
X136000000Y-108900000D01*
X139300000Y-106100000D02*
X136000000Y-106100000D01*
X136000000Y-106100000D02*
X136000000Y-106400000D01*
%TO.C,J4*%
X141150000Y-74450000D02*
X141150000Y-76250000D01*
X139150000Y-76250000D02*
X139150000Y-74450000D01*
X143900000Y-80950000D02*
X144200000Y-81550000D01*
X141650000Y-76250000D02*
X141650000Y-74450000D01*
X137760000Y-81860000D02*
X137760000Y-77360000D01*
X136340000Y-81860000D02*
X137760000Y-81860000D01*
X137760000Y-77360000D02*
X141400000Y-77360000D01*
X138650000Y-74450000D02*
X138650000Y-76250000D01*
X145040000Y-77360000D02*
X141400000Y-77360000D01*
X144150000Y-76250000D02*
X144150000Y-74450000D01*
X143600000Y-81550000D02*
X143900000Y-80950000D01*
X138650000Y-76250000D02*
X139150000Y-76250000D01*
X146460000Y-74450000D02*
X146460000Y-81860000D01*
X145040000Y-81860000D02*
X145040000Y-77360000D01*
X144200000Y-81550000D02*
X143600000Y-81550000D01*
X136340000Y-74450000D02*
X136340000Y-81860000D01*
X141150000Y-76250000D02*
X141650000Y-76250000D01*
X143650000Y-74450000D02*
X143650000Y-76250000D01*
X146460000Y-81860000D02*
X145040000Y-81860000D01*
X143650000Y-76250000D02*
X144150000Y-76250000D01*
%TO.C,J1*%
X113360000Y-100610000D02*
X113360000Y-103000000D01*
X113360000Y-105390000D02*
X113360000Y-103000000D01*
X117860000Y-100610000D02*
X113360000Y-100610000D01*
X110450000Y-102000000D02*
X112250000Y-102000000D01*
X117860000Y-106810000D02*
X117860000Y-105390000D01*
X117550000Y-101450000D02*
X117550000Y-102050000D01*
X112250000Y-104500000D02*
X112250000Y-104000000D01*
X117550000Y-102050000D02*
X116950000Y-101750000D01*
X110450000Y-99190000D02*
X117860000Y-99190000D01*
X112250000Y-102000000D02*
X112250000Y-101500000D01*
X117860000Y-105390000D02*
X113360000Y-105390000D01*
X110450000Y-104500000D02*
X112250000Y-104500000D01*
X116950000Y-101750000D02*
X117550000Y-101450000D01*
X110450000Y-106810000D02*
X117860000Y-106810000D01*
X112250000Y-104000000D02*
X110450000Y-104000000D01*
X117860000Y-99190000D02*
X117860000Y-100610000D01*
X112250000Y-101500000D02*
X110450000Y-101500000D01*
%TO.C,C9*%
X133740000Y-99792164D02*
X133740000Y-100007836D01*
X134460000Y-99792164D02*
X134460000Y-100007836D01*
%TO.C,C1*%
X114440580Y-98310000D02*
X114159420Y-98310000D01*
X114440580Y-97290000D02*
X114159420Y-97290000D01*
%TO.C,SW3*%
X153120000Y-85940000D02*
X153120000Y-86240000D01*
X156420000Y-86240000D02*
X156420000Y-85940000D01*
X156420000Y-88740000D02*
X153120000Y-88740000D01*
X153120000Y-88740000D02*
X153120000Y-88440000D01*
X156420000Y-85940000D02*
X153120000Y-85940000D01*
X156420000Y-88440000D02*
X156420000Y-88740000D01*
%TO.C,D1*%
X122227500Y-87000000D02*
X119942500Y-87000000D01*
X122227500Y-88470000D02*
X122227500Y-87000000D01*
X119942500Y-88470000D02*
X122227500Y-88470000D01*
%TO.C,J5*%
X146560000Y-116090000D02*
X145140000Y-116090000D01*
X139000000Y-117000000D02*
X138700000Y-116400000D01*
X146560000Y-123500000D02*
X146560000Y-116090000D01*
X139250000Y-121700000D02*
X138750000Y-121700000D01*
X143750000Y-121700000D02*
X143750000Y-123500000D01*
X138750000Y-121700000D02*
X138750000Y-123500000D01*
X141250000Y-121700000D02*
X141250000Y-123500000D01*
X137860000Y-120590000D02*
X141500000Y-120590000D01*
X141750000Y-121700000D02*
X141250000Y-121700000D01*
X144250000Y-123500000D02*
X144250000Y-121700000D01*
X139250000Y-123500000D02*
X139250000Y-121700000D01*
X137860000Y-116090000D02*
X137860000Y-120590000D01*
X136440000Y-123500000D02*
X136440000Y-116090000D01*
X139300000Y-116400000D02*
X139000000Y-117000000D01*
X145140000Y-116090000D02*
X145140000Y-120590000D01*
X144250000Y-121700000D02*
X143750000Y-121700000D01*
X141750000Y-123500000D02*
X141750000Y-121700000D01*
X138700000Y-116400000D02*
X139300000Y-116400000D01*
X145140000Y-120590000D02*
X141500000Y-120590000D01*
X136440000Y-116090000D02*
X137860000Y-116090000D01*
%TO.C,J2*%
X133760000Y-123500000D02*
X133760000Y-116090000D01*
X126450000Y-123500000D02*
X126450000Y-121700000D01*
X128950000Y-121700000D02*
X128450000Y-121700000D01*
X123640000Y-123500000D02*
X123640000Y-116090000D01*
X125900000Y-116400000D02*
X126500000Y-116400000D01*
X125060000Y-116090000D02*
X125060000Y-120590000D01*
X128450000Y-121700000D02*
X128450000Y-123500000D01*
X131450000Y-121700000D02*
X130950000Y-121700000D01*
X126200000Y-117000000D02*
X125900000Y-116400000D01*
X126450000Y-121700000D02*
X125950000Y-121700000D01*
X130950000Y-121700000D02*
X130950000Y-123500000D01*
X133760000Y-116090000D02*
X132340000Y-116090000D01*
X125060000Y-120590000D02*
X128700000Y-120590000D01*
X126500000Y-116400000D02*
X126200000Y-117000000D01*
X132340000Y-116090000D02*
X132340000Y-120590000D01*
X123640000Y-116090000D02*
X125060000Y-116090000D01*
X125950000Y-121700000D02*
X125950000Y-123500000D01*
X131450000Y-123500000D02*
X131450000Y-121700000D01*
X132340000Y-120590000D02*
X128700000Y-120590000D01*
X128950000Y-123500000D02*
X128950000Y-121700000D01*
%TO.C,C6*%
X131492164Y-96140000D02*
X131707836Y-96140000D01*
X131492164Y-96860000D02*
X131707836Y-96860000D01*
%TD*%
M02*
