%TF.GenerationSoftware,KiCad,Pcbnew,(6.0.7)*%
%TF.CreationDate,2023-02-10T17:06:25+01:00*%
%TF.ProjectId,STM32L0_ESP32_Breakout_Board,53544d33-324c-4305-9f45-535033325f42,rev?*%
%TF.SameCoordinates,Original*%
%TF.FileFunction,Paste,Top*%
%TF.FilePolarity,Positive*%
%FSLAX46Y46*%
G04 Gerber Fmt 4.6, Leading zero omitted, Abs format (unit mm)*
G04 Created by KiCad (PCBNEW (6.0.7)) date 2023-02-10 17:06:25*
%MOMM*%
%LPD*%
G01*
G04 APERTURE LIST*
G04 Aperture macros list*
%AMRoundRect*
0 Rectangle with rounded corners*
0 $1 Rounding radius*
0 $2 $3 $4 $5 $6 $7 $8 $9 X,Y pos of 4 corners*
0 Add a 4 corners polygon primitive as box body*
4,1,4,$2,$3,$4,$5,$6,$7,$8,$9,$2,$3,0*
0 Add four circle primitives for the rounded corners*
1,1,$1+$1,$2,$3*
1,1,$1+$1,$4,$5*
1,1,$1+$1,$6,$7*
1,1,$1+$1,$8,$9*
0 Add four rect primitives between the rounded corners*
20,1,$1+$1,$2,$3,$4,$5,0*
20,1,$1+$1,$4,$5,$6,$7,0*
20,1,$1+$1,$6,$7,$8,$9,0*
20,1,$1+$1,$8,$9,$2,$3,0*%
%AMFreePoly0*
4,1,14,0.230680,0.111820,0.364320,-0.021821,0.377500,-0.053642,0.377500,-0.080000,0.364320,-0.111820,0.332500,-0.125000,-0.332500,-0.125000,-0.364320,-0.111820,-0.377500,-0.080000,-0.377500,0.080000,-0.364320,0.111820,-0.332500,0.125000,0.198860,0.125000,0.230680,0.111820,0.230680,0.111820,$1*%
%AMFreePoly1*
4,1,14,0.364320,0.111820,0.377500,0.080000,0.377501,0.053640,0.364318,0.021819,0.230680,-0.111820,0.198860,-0.125000,-0.332500,-0.125000,-0.364320,-0.111820,-0.377500,-0.080000,-0.377500,0.080000,-0.364320,0.111820,-0.332500,0.125000,0.332500,0.125000,0.364320,0.111820,0.364320,0.111820,$1*%
%AMFreePoly2*
4,1,15,0.053642,0.377500,0.080000,0.377500,0.111820,0.364320,0.125000,0.332500,0.125000,-0.332500,0.111820,-0.364320,0.080000,-0.377500,-0.080000,-0.377500,-0.111820,-0.364320,-0.125000,-0.332500,-0.125000,0.198860,-0.111820,0.230680,0.021820,0.364320,0.053640,0.377501,0.053642,0.377500,0.053642,0.377500,$1*%
%AMFreePoly3*
4,1,14,-0.021820,0.364320,0.111820,0.230679,0.125000,0.198858,0.125000,-0.332500,0.111820,-0.364320,0.080000,-0.377500,-0.080000,-0.377500,-0.111820,-0.364320,-0.125000,-0.332500,-0.125000,0.332500,-0.111820,0.364320,-0.080000,0.377500,-0.053640,0.377500,-0.021820,0.364320,-0.021820,0.364320,$1*%
%AMFreePoly4*
4,1,14,0.364320,0.111820,0.377500,0.080000,0.377500,-0.080000,0.364320,-0.111820,0.332500,-0.125000,-0.198860,-0.125001,-0.230681,-0.111818,-0.364320,0.021820,-0.377500,0.053640,-0.377500,0.080000,-0.364320,0.111820,-0.332500,0.125000,0.332500,0.125000,0.364320,0.111820,0.364320,0.111820,$1*%
%AMFreePoly5*
4,1,15,-0.198858,0.125000,0.332500,0.125000,0.364320,0.111820,0.377500,0.080000,0.377500,-0.080000,0.364320,-0.111820,0.332500,-0.125000,-0.332500,-0.125000,-0.364320,-0.111820,-0.377500,-0.080000,-0.377500,-0.053640,-0.364320,-0.021820,-0.230680,0.111820,-0.198860,0.125001,-0.198858,0.125000,-0.198858,0.125000,$1*%
%AMFreePoly6*
4,1,14,0.111820,0.364320,0.125000,0.332500,0.125001,-0.198860,0.111818,-0.230681,-0.021820,-0.364320,-0.053640,-0.377500,-0.080000,-0.377500,-0.111820,-0.364320,-0.125000,-0.332500,-0.125000,0.332500,-0.111820,0.364320,-0.080000,0.377500,0.080000,0.377500,0.111820,0.364320,0.111820,0.364320,$1*%
%AMFreePoly7*
4,1,14,0.111820,0.364320,0.125000,0.332500,0.125000,-0.332500,0.111820,-0.364320,0.080000,-0.377500,0.053640,-0.377501,0.021819,-0.364318,-0.111820,-0.230680,-0.125000,-0.198860,-0.125000,0.332500,-0.111820,0.364320,-0.080000,0.377500,0.080000,0.377500,0.111820,0.364320,0.111820,0.364320,$1*%
G04 Aperture macros list end*
%ADD10RoundRect,0.140000X0.170000X-0.140000X0.170000X0.140000X-0.170000X0.140000X-0.170000X-0.140000X0*%
%ADD11RoundRect,0.135000X0.135000X0.185000X-0.135000X0.185000X-0.135000X-0.185000X0.135000X-0.185000X0*%
%ADD12R,1.500000X2.000000*%
%ADD13R,3.800000X2.000000*%
%ADD14RoundRect,0.135000X-0.135000X-0.185000X0.135000X-0.185000X0.135000X0.185000X-0.135000X0.185000X0*%
%ADD15RoundRect,0.140000X-0.170000X0.140000X-0.170000X-0.140000X0.170000X-0.140000X0.170000X0.140000X0*%
%ADD16FreePoly0,180.000000*%
%ADD17RoundRect,0.062500X0.375000X0.062500X-0.375000X0.062500X-0.375000X-0.062500X0.375000X-0.062500X0*%
%ADD18FreePoly1,180.000000*%
%ADD19FreePoly2,180.000000*%
%ADD20RoundRect,0.062500X0.062500X0.375000X-0.062500X0.375000X-0.062500X-0.375000X0.062500X-0.375000X0*%
%ADD21FreePoly3,180.000000*%
%ADD22FreePoly4,180.000000*%
%ADD23FreePoly5,180.000000*%
%ADD24FreePoly6,180.000000*%
%ADD25FreePoly7,180.000000*%
%ADD26RoundRect,0.218750X-0.218750X-0.256250X0.218750X-0.256250X0.218750X0.256250X-0.218750X0.256250X0*%
%ADD27R,1.400000X1.150000*%
%ADD28RoundRect,0.135000X0.185000X-0.135000X0.185000X0.135000X-0.185000X0.135000X-0.185000X-0.135000X0*%
%ADD29R,0.900000X2.000000*%
%ADD30R,2.000000X0.900000*%
%ADD31R,5.000000X5.000000*%
%ADD32R,0.900000X1.700000*%
%ADD33RoundRect,0.140000X-0.140000X-0.170000X0.140000X-0.170000X0.140000X0.170000X-0.140000X0.170000X0*%
%ADD34RoundRect,0.225000X0.250000X-0.225000X0.250000X0.225000X-0.250000X0.225000X-0.250000X-0.225000X0*%
%ADD35RoundRect,0.147500X-0.147500X-0.172500X0.147500X-0.172500X0.147500X0.172500X-0.147500X0.172500X0*%
%ADD36RoundRect,0.225000X0.225000X0.250000X-0.225000X0.250000X-0.225000X-0.250000X0.225000X-0.250000X0*%
%ADD37RoundRect,0.218750X0.218750X0.256250X-0.218750X0.256250X-0.218750X-0.256250X0.218750X-0.256250X0*%
G04 APERTURE END LIST*
D10*
%TO.C,C8*%
X134100000Y-98480000D03*
X134100000Y-97520000D03*
%TD*%
D11*
%TO.C,R1*%
X121502500Y-89060000D03*
X120482500Y-89060000D03*
%TD*%
D12*
%TO.C,U1*%
X112000000Y-95650000D03*
D13*
X114300000Y-89350000D03*
D12*
X114300000Y-95650000D03*
X116600000Y-95650000D03*
%TD*%
D14*
%TO.C,R2*%
X129165000Y-101300000D03*
X130185000Y-101300000D03*
%TD*%
D15*
%TO.C,C3*%
X132200000Y-99645000D03*
X132200000Y-100605000D03*
%TD*%
D16*
%TO.C,U2*%
X129997500Y-99500000D03*
D17*
X129937500Y-99000000D03*
X129937500Y-98500000D03*
X129937500Y-98000000D03*
X129937500Y-97500000D03*
X129937500Y-97000000D03*
D18*
X129997500Y-96500000D03*
D19*
X129500000Y-96002500D03*
D20*
X129000000Y-96062500D03*
X128500000Y-96062500D03*
X128000000Y-96062500D03*
X127500000Y-96062500D03*
X127000000Y-96062500D03*
D21*
X126500000Y-96002500D03*
D22*
X126002500Y-96500000D03*
D17*
X126062500Y-97000000D03*
X126062500Y-97500000D03*
X126062500Y-98000000D03*
X126062500Y-98500000D03*
X126062500Y-99000000D03*
D23*
X126002500Y-99500000D03*
D24*
X126500000Y-99997500D03*
D20*
X127000000Y-99937500D03*
X127500000Y-99937500D03*
X128000000Y-99937500D03*
X128500000Y-99937500D03*
X129000000Y-99937500D03*
D25*
X129500000Y-99997500D03*
%TD*%
D26*
%TO.C,D2*%
X126712500Y-94400000D03*
X128287500Y-94400000D03*
%TD*%
%TO.C,D3*%
X145457500Y-109600000D03*
X147032500Y-109600000D03*
%TD*%
D27*
%TO.C,X1*%
X135700000Y-99300000D03*
X137900000Y-99300000D03*
X137900000Y-97700000D03*
X135700000Y-97700000D03*
%TD*%
D28*
%TO.C,R3*%
X134675000Y-107510000D03*
X134675000Y-106490000D03*
%TD*%
D29*
%TO.C,U3*%
X159005000Y-90500000D03*
X157735000Y-90500000D03*
X156465000Y-90500000D03*
X155195000Y-90500000D03*
X153925000Y-90500000D03*
X152655000Y-90500000D03*
X151385000Y-90500000D03*
X150115000Y-90500000D03*
X148845000Y-90500000D03*
X147575000Y-90500000D03*
X146305000Y-90500000D03*
X145035000Y-90500000D03*
X143765000Y-90500000D03*
X142495000Y-90500000D03*
D30*
X141495000Y-93285000D03*
X141495000Y-94555000D03*
X141495000Y-95825000D03*
X141495000Y-97095000D03*
X141495000Y-98365000D03*
X141495000Y-99635000D03*
X141495000Y-100905000D03*
X141495000Y-102175000D03*
X141495000Y-103445000D03*
X141495000Y-104715000D03*
D29*
X142495000Y-107500000D03*
X143765000Y-107500000D03*
X145035000Y-107500000D03*
X146305000Y-107500000D03*
X147575000Y-107500000D03*
X148845000Y-107500000D03*
X150115000Y-107500000D03*
X151385000Y-107500000D03*
X152655000Y-107500000D03*
X153925000Y-107500000D03*
X155195000Y-107500000D03*
X156465000Y-107500000D03*
X157735000Y-107500000D03*
X159005000Y-107500000D03*
D31*
X151505000Y-98000000D03*
%TD*%
D10*
%TO.C,C5*%
X124800000Y-97480000D03*
X124800000Y-96520000D03*
%TD*%
D14*
%TO.C,R4*%
X126690000Y-93100000D03*
X127710000Y-93100000D03*
%TD*%
D32*
%TO.C,SW1*%
X132900000Y-89500000D03*
X136300000Y-89500000D03*
%TD*%
D15*
%TO.C,C4*%
X131200000Y-99645000D03*
X131200000Y-100605000D03*
%TD*%
D28*
%TO.C,R5*%
X151790000Y-87300000D03*
X151790000Y-86280000D03*
%TD*%
D33*
%TO.C,C7*%
X131120000Y-95500000D03*
X132080000Y-95500000D03*
%TD*%
D14*
%TO.C,R6*%
X145435000Y-110900000D03*
X146455000Y-110900000D03*
%TD*%
D34*
%TO.C,C2*%
X118800000Y-93250000D03*
X118800000Y-91700000D03*
%TD*%
D32*
%TO.C,SW2*%
X139350000Y-107500000D03*
X135950000Y-107500000D03*
%TD*%
D35*
%TO.C,FB1*%
X131115000Y-94500000D03*
X132085000Y-94500000D03*
%TD*%
D15*
%TO.C,C9*%
X134100000Y-99420000D03*
X134100000Y-100380000D03*
%TD*%
D36*
%TO.C,C1*%
X115075000Y-97800000D03*
X113525000Y-97800000D03*
%TD*%
D32*
%TO.C,SW3*%
X156470000Y-87340000D03*
X153070000Y-87340000D03*
%TD*%
D37*
%TO.C,D1*%
X121530000Y-87735000D03*
X119955000Y-87735000D03*
%TD*%
D33*
%TO.C,C6*%
X131120000Y-96500000D03*
X132080000Y-96500000D03*
%TD*%
M02*
