M48
; DRILL file {KiCad (6.0.7)} date Fri Feb 10 17:06:18 2023
; FORMAT={-:-/ absolute / metric / decimal}
; #@! TF.CreationDate,2023-02-10T17:06:18+01:00
; #@! TF.GenerationSoftware,Kicad,Pcbnew,(6.0.7)
; #@! TF.FileFunction,MixedPlating,1,4
FMAT,2
METRIC
; #@! TA.AperFunction,Plated,PTH,ViaDrill
T1C0.200
; #@! TA.AperFunction,Plated,PTH,ViaDrill
T2C0.300
; #@! TA.AperFunction,Plated,PTH,ComponentDrill
T3C0.600
; #@! TA.AperFunction,Plated,PTH,ComponentDrill
T4C0.950
; #@! TA.AperFunction,Plated,PTH,ComponentDrill
T5C1.000
; #@! TA.AperFunction,Plated,PTH,ComponentDrill
T6C4.300
%
G90
G05
T1
X112.0Y-87.0
X114.0Y-109.0
X114.0Y-112.0
X116.0Y-87.0
X119.0Y-97.0
X119.0Y-100.0
X119.0Y-103.0
X119.0Y-106.0
X121.0Y-77.0
X121.0Y-83.0
X122.0Y-91.0
X122.0Y-94.0
X122.0Y-97.0
X122.0Y-100.0
X122.0Y-103.0
X122.0Y-106.0
X125.0Y-83.0
X125.0Y-87.0
X125.8Y-103.0
X125.8Y-107.6
X125.9Y-111.5
X126.0Y-77.0
X127.3Y-97.3
X127.4Y-116.6
X130.0Y-77.0
X130.0Y-83.0
X130.0Y-84.9
X130.0Y-87.0
X130.2Y-106.6
X131.8Y-108.2
X133.005Y-99.7
X134.0Y-77.0
X134.0Y-83.0
X134.0Y-84.9
X134.0Y-114.9
X136.0Y-95.0
X137.0Y-93.0
X137.0Y-113.1
X138.0Y-77.0
X138.0Y-83.0
X138.0Y-84.9
X142.0Y-77.0
X142.0Y-83.0
X142.0Y-87.0
X142.9Y-113.1
X142.9Y-116.0
X143.3Y-114.6
X146.0Y-77.0
X146.0Y-83.0
X146.0Y-87.0
X148.8Y-112.7
X149.0Y-116.0
X149.5Y-96.0
X149.5Y-98.0
X149.5Y-100.0
X149.5Y-109.8
X150.0Y-77.0
X150.0Y-83.0
X150.0Y-87.0
X151.5Y-96.0
X151.5Y-98.0
X151.5Y-100.0
X152.0Y-110.0
X152.0Y-113.3
X153.5Y-96.0
X153.5Y-98.0
X153.5Y-100.0
X154.6Y-110.0
X158.0Y-112.0
X158.0Y-115.0
T2
X111.3Y-97.8
X112.0Y-93.9
X112.2Y-97.8
X112.4Y-91.5
X114.3Y-93.95
X116.2Y-91.5
X118.8Y-90.5
X118.8Y-94.6
X118.817Y-87.735
X119.517Y-89.035
X120.1Y-91.7
X120.1Y-93.25
X120.517Y-90.135
X124.8Y-95.6
X124.8Y-98.4
X127.8Y-92.1
X128.6Y-93.1
X131.225Y-101.475
X132.073Y-97.325
X132.1Y-93.4
X132.2Y-101.475
X133.125Y-100.575
X133.125Y-101.475
X133.6Y-106.5
X134.1Y-101.475
X137.4Y-89.5
X137.96Y-100.68
X139.7Y-93.3
X147.4Y-110.9
X151.8Y-85.37
X157.75Y-88.6
X159.0Y-88.6
X159.0Y-109.4
T3
X111.775Y-79.0
X111.775Y-119.0
X112.72Y-76.72
X112.72Y-81.28
X112.72Y-116.72
X112.72Y-121.28
X115.0Y-75.775
X115.0Y-82.225
X115.0Y-115.775
X115.0Y-122.225
X117.28Y-76.72
X117.28Y-81.28
X117.28Y-116.72
X117.28Y-121.28
X118.225Y-79.0
X118.225Y-119.0
X151.775Y-79.0
X151.775Y-119.0
X152.72Y-76.72
X152.72Y-81.28
X152.72Y-116.72
X152.72Y-121.28
X155.0Y-75.775
X155.0Y-82.225
X155.0Y-115.775
X155.0Y-122.225
X157.28Y-76.72
X157.28Y-81.28
X157.28Y-116.72
X157.28Y-121.28
X158.225Y-79.0
X158.225Y-119.0
T4
X126.1Y-79.45
X126.2Y-118.5
X128.6Y-79.45
X128.7Y-118.5
X131.1Y-79.45
X131.2Y-118.5
X138.9Y-79.45
X139.0Y-118.5
X141.4Y-79.45
X141.5Y-118.5
X143.9Y-79.45
X144.0Y-118.5
T5
X115.45Y-101.75
X115.45Y-104.25
T6
X115.0Y-79.0
X115.0Y-119.0
X155.0Y-79.0
X155.0Y-119.0
T0
M30
